<svg height="787" viewBox="0 0 832 787" xmlns:xlink="http://www.w3.org/1999/xlink" xmlns="http://www.w3.org/2000/svg" xmlns:ev="http://www.w3.org/2001/xml-events" width="832"><defs/><g transform="translate(5.5,5.5)" id="page3"><rect fill="none" height="777" x="0" y="0" width="822"/><path fill="#a0a0a4" fill-opacity="0.50" d="M67.3,138.5L59.5,130.7L60.5,129.7L69.9,133.1L66.6,123.6L67.6,122.6L75.4,130.4L74.6,131.1L67.9,124.4L71.5,134.3L71.1,134.6L61.2,131.1L68.0,137.8L67.3,138.5M71.3,118.9L72.1,118.2L82.7,123.1L81.8,124.0L78.2,122.2L75.3,125.2L76.9,128.8L76.1,129.7L71.3,118.9M77.3,121.8L72.6,119.5L74.8,124.3L77.3,121.8M75.7,114.5L80.5,109.7L81.2,110.4L77.1,114.4L79.8,117.1L83.7,113.2L84.4,113.9L80.5,117.8L83.5,120.9L87.6,116.8L88.3,117.5L83.4,122.3L75.7,114.5M81.2,109.0L87.2,103.0L87.9,103.7L85.3,106.3L92.4,113.4L91.6,114.2L84.5,107.1L81.9,109.7L81.2,109.0M87.9,102.3L92.8,97.5L93.4,98.1L89.4,102.2L92.1,104.9L96.0,101.0L96.7,101.7L92.8,105.6L95.8,108.6L99.9,104.5L100.6,105.2L95.7,110.1L87.9,102.3M101.5,104.3L93.7,96.5L94.4,95.8L105.8,97.6L99.2,91.0L99.9,90.3L107.7,98.1L107.0,98.8L95.6,97.0L102.2,103.6L101.5,104.3M112.2,93.9C111.3,94.8,110.1,95.2,108.8,95.2C107.3,95.1,105.9,94.5,104.7,93.3C103.6,92.2,102.9,90.9,102.8,89.4C102.8,88.0,103.2,86.8,104.1,85.9C105.1,84.9,106.2,84.5,107.6,84.5C109.1,84.6,110.4,85.3,111.6,86.4C112.8,87.7,113.4,89.0,113.4,90.5C113.5,91.9,113.0,93.0,112.2,93.9M111.4,93.2C112.1,92.4,112.4,91.5,112.3,90.4C112.2,89.2,111.7,88.2,110.8,87.3C110.3,86.8,109.8,86.4,109.3,86.2C108.8,85.9,108.2,85.8,107.7,85.7C106.5,85.5,105.6,85.8,104.9,86.6C104.1,87.3,103.8,88.3,104.0,89.4C104.1,90.5,104.6,91.6,105.6,92.5C106.5,93.5,107.6,94.0,108.7,94.1C109.8,94.2,110.7,93.9,111.4,93.2M117.3,88.5C117.1,88.7,116.9,88.8,116.7,88.7C116.5,88.7,116.2,88.6,116.0,88.4C115.8,88.2,115.7,88.0,115.7,87.7C115.7,87.5,115.8,87.3,115.9,87.1C116.1,87.0,116.2,86.9,116.5,86.9C116.7,86.9,116.9,87.0,117.2,87.3C117.4,87.5,117.5,87.7,117.5,87.9C117.5,88.2,117.5,88.4,117.3,88.5M119.2,76.9L120.1,77.8C119.4,77.8,118.8,78.0,118.2,78.2C118.1,78.3,117.9,78.4,117.8,78.5C117.7,78.6,117.5,78.7,117.4,78.8C116.9,79.3,116.6,80.0,116.7,80.8C116.8,81.5,117.1,82.2,117.7,82.8C118.3,83.4,119.0,83.7,119.7,83.8C120.5,83.8,121.2,83.5,121.7,83.0C122.1,82.7,122.3,82.3,122.4,81.8C122.6,81.4,122.6,80.9,122.6,80.3L123.6,81.2C123.4,81.8,123.3,82.3,123.1,82.7C122.9,83.0,122.6,83.4,122.4,83.7C121.6,84.4,120.7,84.8,119.7,84.8C118.6,84.7,117.7,84.3,116.9,83.6C116.2,82.8,115.8,81.9,115.7,80.8C115.7,79.8,116.1,78.9,116.8,78.1C117.2,77.7,117.6,77.4,118.1,77.2C118.4,77.1,118.7,77.0,119.2,76.9M127.5,78.6C126.8,79.2,125.9,79.6,124.9,79.6C123.9,79.6,122.9,79.2,122.1,78.4C121.3,77.6,120.9,76.7,120.8,75.7C120.8,74.7,121.1,73.8,121.9,73.1C122.6,72.4,123.4,72.0,124.5,72.1C125.5,72.1,126.4,72.5,127.2,73.3C128.0,74.1,128.4,75.0,128.4,76.1C128.4,77.1,128.1,77.9,127.5,78.6M126.7,78.0C127.2,77.5,127.4,76.9,127.4,76.1C127.4,75.4,127.0,74.7,126.4,74.1C125.8,73.4,125.1,73.1,124.3,73.1C123.5,73.0,123.0,73.3,122.5,73.7C122.0,74.2,121.8,74.8,121.9,75.5C121.9,76.3,122.2,77.0,122.9,77.6C123.5,78.2,124.2,78.6,124.9,78.6C125.7,78.7,126.3,78.5,126.7,78.0M135.1,63.9L138.5,67.3L137.8,68.0L134.2,64.4C133.8,64.0,133.4,63.9,132.9,63.9C132.5,63.9,132.2,64.1,131.9,64.4C131.4,64.8,131.2,65.4,131.3,66.2C131.3,66.9,131.7,67.6,132.3,68.2L134.9,70.8L134.2,71.6L130.6,68.0C130.3,67.6,129.9,67.5,129.4,67.5C128.9,67.5,128.6,67.6,128.3,67.9C127.8,68.4,127.7,69.0,127.7,69.7C127.7,70.5,128.1,71.2,128.7,71.8L131.3,74.4L130.6,75.1L125.3,69.8L126.0,69.2L126.9,70.0C126.7,69.5,126.8,69.0,127.0,68.4C127.1,68.0,127.4,67.6,127.7,67.2C128.2,66.7,128.8,66.5,129.4,66.4C129.9,66.4,130.2,66.4,130.5,66.6C130.4,66.2,130.4,65.8,130.4,65.4C130.5,64.7,130.8,64.1,131.3,63.7C131.8,63.1,132.4,62.8,133.1,62.9C133.8,62.9,134.5,63.2,135.1,63.9" stroke-opacity="0.50"/><path fill="#a0a0a4" fill-opacity="0.50" d="M67.3,336.5L59.5,328.7L60.5,327.7L69.9,331.1L66.6,321.6L67.6,320.6L75.4,328.4L74.6,329.1L67.9,322.4L71.5,332.3L71.1,332.6L61.2,329.1L68.0,335.8L67.3,336.5M71.3,316.9L72.1,316.2L82.7,321.1L81.8,322.0L78.2,320.2L75.3,323.2L76.9,326.8L76.1,327.7L71.3,316.9M77.3,319.8L72.6,317.5L74.8,322.3L77.3,319.8M75.7,312.5L80.5,307.7L81.2,308.4L77.1,312.4L79.8,315.1L83.7,311.2L84.4,311.9L80.5,315.8L83.5,318.9L87.6,314.8L88.3,315.5L83.4,320.3L75.7,312.5M81.2,307.0L87.2,301.0L87.9,301.7L85.3,304.3L92.4,311.4L91.6,312.2L84.5,305.1L81.9,307.7L81.2,307.0M87.9,300.3L92.8,295.5L93.4,296.1L89.4,300.2L92.1,302.9L96.0,299.0L96.7,299.7L92.8,303.6L95.8,306.6L99.9,302.5L100.6,303.2L95.7,308.1L87.9,300.3M101.5,302.3L93.7,294.5L94.4,293.8L105.8,295.6L99.2,289.0L99.9,288.3L107.7,296.1L107.0,296.8L95.6,295.0L102.2,301.6L101.5,302.3M112.2,291.9C111.3,292.8,110.1,293.2,108.8,293.2C107.3,293.1,105.9,292.5,104.7,291.3C103.6,290.2,102.9,288.9,102.8,287.4C102.8,286.0,103.2,284.8,104.1,283.9C105.1,282.9,106.2,282.5,107.6,282.5C109.1,282.6,110.4,283.3,111.6,284.4C112.8,285.7,113.4,287.0,113.4,288.5C113.5,289.9,113.0,291.0,112.2,291.9M111.4,291.2C112.1,290.4,112.4,289.5,112.3,288.4C112.2,287.2,111.7,286.2,110.8,285.3C110.3,284.8,109.8,284.4,109.3,284.2C108.8,283.9,108.2,283.8,107.7,283.7C106.5,283.5,105.6,283.8,104.9,284.6C104.1,285.3,103.8,286.3,104.0,287.4C104.1,288.5,104.6,289.6,105.6,290.5C106.5,291.5,107.6,292.0,108.7,292.1C109.8,292.2,110.7,291.9,111.4,291.2M117.3,286.5C117.1,286.7,116.9,286.8,116.7,286.7C116.5,286.7,116.2,286.6,116.0,286.4C115.8,286.2,115.7,286.0,115.7,285.7C115.7,285.5,115.8,285.3,115.9,285.1C116.1,285.0,116.2,284.9,116.5,284.9C116.7,284.9,116.9,285.0,117.2,285.3C117.4,285.5,117.5,285.7,117.5,285.9C117.5,286.2,117.5,286.4,117.3,286.5M119.2,274.9L120.1,275.8C119.4,275.8,118.8,276.0,118.2,276.2C118.1,276.3,117.9,276.4,117.8,276.5C117.7,276.6,117.5,276.7,117.4,276.8C116.9,277.3,116.6,278.0,116.7,278.8C116.8,279.5,117.1,280.2,117.7,280.8C118.3,281.4,119.0,281.7,119.7,281.8C120.5,281.8,121.2,281.5,121.7,281.0C122.1,280.7,122.3,280.3,122.4,279.8C122.6,279.4,122.6,278.9,122.6,278.3L123.6,279.2C123.4,279.8,123.3,280.3,123.1,280.7C122.9,281.0,122.6,281.4,122.4,281.7C121.6,282.4,120.7,282.8,119.7,282.8C118.6,282.7,117.7,282.3,116.9,281.6C116.2,280.8,115.8,279.9,115.7,278.8C115.7,277.8,116.1,276.9,116.8,276.1C117.2,275.7,117.6,275.4,118.1,275.2C118.4,275.1,118.7,275.0,119.2,274.9M127.5,276.6C126.8,277.2,125.9,277.6,124.9,277.6C123.9,277.6,122.9,277.2,122.1,276.4C121.3,275.6,120.9,274.7,120.8,273.7C120.8,272.7,121.1,271.8,121.9,271.1C122.6,270.4,123.4,270.0,124.5,270.1C125.5,270.1,126.4,270.5,127.2,271.3C128.0,272.1,128.4,273.0,128.4,274.1C128.4,275.1,128.1,275.9,127.5,276.6M126.7,276.0C127.2,275.5,127.4,274.9,127.4,274.1C127.4,273.4,127.0,272.7,126.4,272.1C125.8,271.4,125.1,271.1,124.3,271.1C123.5,271.0,123.0,271.3,122.5,271.7C122.0,272.2,121.8,272.8,121.9,273.5C121.9,274.3,122.2,275.0,122.9,275.6C123.5,276.2,124.2,276.6,124.9,276.6C125.7,276.7,126.3,276.5,126.7,276.0M135.1,261.9L138.5,265.3L137.8,266.0L134.2,262.4C133.8,262.0,133.4,261.9,132.9,261.9C132.5,261.9,132.2,262.1,131.9,262.4C131.4,262.8,131.2,263.4,131.3,264.2C131.3,264.9,131.7,265.6,132.3,266.2L134.9,268.8L134.2,269.6L130.6,266.0C130.3,265.6,129.9,265.5,129.4,265.5C128.9,265.5,128.6,265.6,128.3,265.9C127.8,266.4,127.7,267.0,127.7,267.7C127.7,268.5,128.1,269.2,128.7,269.8L131.3,272.4L130.6,273.1L125.3,267.8L126.0,267.2L126.9,268.0C126.7,267.5,126.8,267.0,127.0,266.4C127.1,266.0,127.4,265.6,127.7,265.2C128.2,264.7,128.8,264.5,129.4,264.4C129.9,264.4,130.2,264.4,130.5,264.6C130.4,264.2,130.4,263.8,130.4,263.4C130.5,262.7,130.8,262.1,131.3,261.7C131.8,261.1,132.4,260.8,133.1,260.9C133.8,260.9,134.5,261.2,135.1,261.9" stroke-opacity="0.50"/><path fill="#a0a0a4" fill-opacity="0.50" d="M67.3,534.5L59.5,526.7L60.5,525.7L69.9,529.1L66.6,519.6L67.6,518.6L75.4,526.4L74.6,527.1L67.9,520.4L71.5,530.3L71.1,530.6L61.2,527.1L68.0,533.8L67.3,534.5M71.3,514.9L72.1,514.2L82.7,519.1L81.8,520.0L78.2,518.2L75.3,521.2L76.9,524.8L76.1,525.7L71.3,514.9M77.3,517.8L72.6,515.5L74.8,520.3L77.3,517.8M75.7,510.5L80.5,505.7L81.2,506.4L77.1,510.4L79.8,513.1L83.7,509.2L84.4,509.9L80.5,513.8L83.5,516.9L87.6,512.8L88.3,513.5L83.4,518.3L75.7,510.5M81.2,505.0L87.2,499.0L87.9,499.7L85.3,502.3L92.4,509.4L91.6,510.2L84.5,503.1L81.9,505.7L81.2,505.0M87.9,498.3L92.8,493.5L93.4,494.1L89.4,498.2L92.1,500.9L96.0,497.0L96.7,497.7L92.8,501.6L95.8,504.6L99.9,500.5L100.6,501.2L95.7,506.1L87.9,498.3M101.5,500.3L93.7,492.5L94.4,491.8L105.8,493.6L99.2,487.0L99.9,486.3L107.7,494.1L107.0,494.8L95.6,493.0L102.2,499.6L101.5,500.3M112.2,489.9C111.3,490.8,110.1,491.2,108.8,491.2C107.3,491.1,105.9,490.5,104.7,489.3C103.6,488.2,102.9,486.9,102.8,485.4C102.8,484.0,103.2,482.8,104.1,481.9C105.1,480.9,106.2,480.5,107.6,480.5C109.1,480.6,110.4,481.3,111.6,482.4C112.8,483.7,113.4,485.0,113.4,486.5C113.5,487.9,113.0,489.0,112.2,489.9M111.4,489.2C112.1,488.4,112.4,487.5,112.3,486.4C112.2,485.2,111.7,484.2,110.8,483.3C110.3,482.8,109.8,482.4,109.3,482.2C108.8,481.9,108.2,481.8,107.7,481.7C106.5,481.5,105.6,481.8,104.9,482.6C104.1,483.3,103.8,484.3,104.0,485.4C104.1,486.5,104.6,487.6,105.6,488.5C106.5,489.5,107.6,490.0,108.7,490.1C109.8,490.2,110.7,489.9,111.4,489.2M117.3,484.5C117.1,484.7,116.9,484.8,116.7,484.7C116.5,484.7,116.2,484.6,116.0,484.4C115.8,484.2,115.7,484.0,115.7,483.7C115.7,483.5,115.8,483.3,115.9,483.1C116.1,483.0,116.2,482.9,116.5,482.9C116.7,482.9,116.9,483.0,117.2,483.3C117.4,483.5,117.5,483.7,117.5,483.9C117.5,484.2,117.5,484.4,117.3,484.5M119.2,472.9L120.1,473.8C119.4,473.8,118.8,474.0,118.2,474.2C118.1,474.3,117.9,474.4,117.8,474.5C117.7,474.6,117.5,474.7,117.4,474.8C116.9,475.3,116.6,476.0,116.7,476.8C116.8,477.5,117.1,478.2,117.7,478.8C118.3,479.4,119.0,479.7,119.7,479.8C120.5,479.8,121.2,479.5,121.7,479.0C122.1,478.7,122.3,478.3,122.4,477.8C122.6,477.4,122.6,476.9,122.6,476.3L123.6,477.2C123.4,477.8,123.3,478.3,123.1,478.7C122.9,479.0,122.6,479.4,122.4,479.7C121.6,480.4,120.7,480.8,119.7,480.8C118.6,480.7,117.7,480.3,116.9,479.6C116.2,478.8,115.8,477.9,115.7,476.8C115.7,475.8,116.1,474.9,116.8,474.1C117.2,473.7,117.6,473.4,118.1,473.2C118.4,473.1,118.7,473.0,119.2,472.9M127.5,474.6C126.8,475.2,125.9,475.6,124.9,475.6C123.9,475.6,122.9,475.2,122.1,474.4C121.3,473.6,120.9,472.7,120.8,471.7C120.8,470.7,121.1,469.8,121.9,469.1C122.6,468.4,123.4,468.0,124.5,468.1C125.5,468.1,126.4,468.5,127.2,469.3C128.0,470.1,128.4,471.0,128.4,472.1C128.4,473.1,128.1,473.9,127.5,474.6M126.7,474.0C127.2,473.5,127.4,472.9,127.4,472.1C127.4,471.4,127.0,470.7,126.4,470.1C125.8,469.4,125.1,469.1,124.3,469.1C123.5,469.0,123.0,469.3,122.5,469.7C122.0,470.2,121.8,470.8,121.9,471.5C121.9,472.3,122.2,473.0,122.9,473.6C123.5,474.2,124.2,474.6,124.9,474.6C125.7,474.7,126.3,474.5,126.7,474.0M135.1,459.9L138.5,463.3L137.8,464.0L134.2,460.4C133.8,460.0,133.4,459.9,132.9,459.9C132.5,459.9,132.2,460.1,131.9,460.4C131.4,460.8,131.2,461.4,131.3,462.2C131.3,462.9,131.7,463.6,132.3,464.2L134.9,466.8L134.2,467.6L130.6,464.0C130.3,463.6,129.9,463.5,129.4,463.5C128.9,463.5,128.6,463.6,128.3,463.9C127.8,464.4,127.7,465.0,127.7,465.7C127.7,466.5,128.1,467.2,128.7,467.8L131.3,470.4L130.6,471.1L125.3,465.8L126.0,465.2L126.9,466.0C126.7,465.5,126.8,465.0,127.0,464.4C127.1,464.0,127.4,463.6,127.7,463.2C128.2,462.7,128.8,462.5,129.4,462.4C129.9,462.4,130.2,462.4,130.5,462.6C130.4,462.2,130.4,461.8,130.4,461.4C130.5,460.7,130.8,460.1,131.3,459.7C131.8,459.1,132.4,458.8,133.1,458.9C133.8,458.9,134.5,459.2,135.1,459.9" stroke-opacity="0.50"/><path fill="#a0a0a4" fill-opacity="0.50" d="M67.3,732.5L59.5,724.7L60.5,723.7L69.9,727.1L66.6,717.6L67.6,716.6L75.4,724.4L74.6,725.1L67.9,718.4L71.5,728.3L71.1,728.6L61.2,725.1L68.0,731.8L67.3,732.5M71.3,712.9L72.1,712.2L82.7,717.1L81.8,718.0L78.2,716.2L75.3,719.2L76.9,722.8L76.1,723.7L71.3,712.9M77.3,715.8L72.6,713.5L74.8,718.3L77.3,715.8M75.7,708.5L80.5,703.7L81.2,704.4L77.1,708.4L79.8,711.1L83.7,707.2L84.4,707.9L80.5,711.8L83.5,714.9L87.6,710.8L88.3,711.5L83.4,716.3L75.7,708.5M81.2,703.0L87.2,697.0L87.9,697.7L85.3,700.3L92.4,707.4L91.6,708.2L84.5,701.1L81.9,703.7L81.2,703.0M87.9,696.3L92.8,691.5L93.4,692.1L89.4,696.2L92.1,698.9L96.0,695.0L96.7,695.7L92.8,699.6L95.8,702.6L99.9,698.5L100.6,699.2L95.7,704.1L87.9,696.3M101.5,698.3L93.7,690.5L94.4,689.8L105.8,691.6L99.2,685.0L99.9,684.3L107.7,692.1L107.0,692.8L95.6,691.0L102.2,697.6L101.5,698.3M112.2,687.9C111.3,688.8,110.1,689.2,108.8,689.2C107.3,689.1,105.9,688.5,104.7,687.3C103.6,686.2,102.9,684.9,102.8,683.4C102.8,682.0,103.2,680.8,104.1,679.9C105.1,678.9,106.2,678.5,107.6,678.5C109.1,678.6,110.4,679.3,111.6,680.4C112.8,681.7,113.4,683.0,113.4,684.5C113.5,685.9,113.0,687.0,112.2,687.9M111.4,687.2C112.1,686.4,112.4,685.5,112.3,684.4C112.2,683.2,111.7,682.2,110.8,681.3C110.3,680.8,109.8,680.4,109.3,680.2C108.8,679.9,108.2,679.8,107.7,679.7C106.5,679.5,105.6,679.8,104.9,680.6C104.1,681.3,103.8,682.3,104.0,683.4C104.1,684.5,104.6,685.6,105.6,686.5C106.5,687.5,107.6,688.0,108.7,688.1C109.8,688.2,110.7,687.9,111.4,687.2M117.3,682.5C117.1,682.7,116.9,682.8,116.7,682.7C116.5,682.7,116.2,682.6,116.0,682.4C115.8,682.2,115.7,682.0,115.7,681.7C115.7,681.5,115.8,681.3,115.9,681.1C116.1,681.0,116.2,680.9,116.5,680.9C116.7,680.9,116.9,681.0,117.2,681.3C117.4,681.5,117.5,681.7,117.5,681.9C117.5,682.2,117.5,682.4,117.3,682.5M119.2,670.9L120.1,671.8C119.4,671.8,118.8,672.0,118.2,672.2C118.1,672.3,117.9,672.4,117.8,672.5C117.7,672.6,117.5,672.7,117.4,672.8C116.9,673.3,116.6,674.0,116.7,674.8C116.8,675.5,117.1,676.2,117.7,676.8C118.3,677.4,119.0,677.7,119.7,677.8C120.5,677.8,121.2,677.5,121.7,677.0C122.1,676.7,122.3,676.3,122.4,675.8C122.6,675.4,122.6,674.9,122.6,674.3L123.6,675.2C123.4,675.8,123.3,676.3,123.1,676.7C122.9,677.0,122.6,677.4,122.4,677.7C121.6,678.4,120.7,678.8,119.7,678.8C118.6,678.7,117.7,678.3,116.9,677.6C116.2,676.8,115.8,675.9,115.7,674.8C115.7,673.8,116.1,672.9,116.8,672.1C117.2,671.7,117.6,671.4,118.1,671.2C118.4,671.1,118.7,671.0,119.2,670.9M127.5,672.6C126.8,673.2,125.9,673.6,124.9,673.6C123.9,673.6,122.9,673.2,122.1,672.4C121.3,671.6,120.9,670.7,120.8,669.7C120.8,668.7,121.1,667.8,121.9,667.1C122.6,666.4,123.4,666.0,124.5,666.1C125.5,666.1,126.4,666.5,127.2,667.3C128.0,668.1,128.4,669.0,128.4,670.1C128.4,671.1,128.1,671.9,127.5,672.6M126.7,672.0C127.2,671.5,127.4,670.9,127.4,670.1C127.4,669.4,127.0,668.7,126.4,668.1C125.8,667.4,125.1,667.1,124.3,667.1C123.5,667.0,123.0,667.3,122.5,667.7C122.0,668.2,121.8,668.8,121.9,669.5C121.9,670.3,122.2,671.0,122.9,671.6C123.5,672.2,124.2,672.6,124.9,672.6C125.7,672.7,126.3,672.5,126.7,672.0M135.1,657.9L138.5,661.3L137.8,662.0L134.2,658.4C133.8,658.0,133.4,657.9,132.9,657.9C132.5,657.9,132.2,658.1,131.9,658.4C131.4,658.8,131.2,659.4,131.3,660.2C131.3,660.9,131.7,661.6,132.3,662.2L134.9,664.8L134.2,665.6L130.6,662.0C130.3,661.6,129.9,661.5,129.4,661.5C128.9,661.5,128.6,661.6,128.3,661.9C127.8,662.4,127.7,663.0,127.7,663.7C127.7,664.5,128.1,665.2,128.7,665.8L131.3,668.4L130.6,669.1L125.3,663.8L126.0,663.2L126.9,664.0C126.7,663.5,126.8,663.0,127.0,662.4C127.1,662.0,127.4,661.6,127.7,661.2C128.2,660.7,128.8,660.5,129.4,660.4C129.9,660.4,130.2,660.4,130.5,660.6C130.4,660.2,130.4,659.8,130.4,659.4C130.5,658.7,130.8,658.1,131.3,657.7C131.8,657.1,132.4,656.8,133.1,656.9C133.8,656.9,134.5,657.2,135.1,657.9" stroke-opacity="0.50"/><path fill="#a0a0a4" fill-opacity="0.50" d="M265.3,138.5L257.5,130.7L258.5,129.7L267.9,133.1L264.6,123.6L265.6,122.6L273.4,130.4L272.6,131.1L265.9,124.4L269.5,134.3L269.1,134.6L259.2,131.1L266.0,137.8L265.3,138.5M269.3,118.9L270.1,118.2L280.7,123.1L279.8,124.0L276.2,122.2L273.3,125.2L274.9,128.8L274.1,129.7L269.3,118.9M275.3,121.8L270.6,119.5L272.8,124.3L275.3,121.8M273.7,114.5L278.5,109.7L279.2,110.4L275.1,114.4L277.8,117.1L281.7,113.2L282.4,113.9L278.5,117.8L281.5,120.9L285.6,116.8L286.3,117.5L281.4,122.3L273.7,114.5M279.2,109.0L285.2,103.0L285.9,103.7L283.3,106.3L290.4,113.4L289.6,114.2L282.5,107.1L279.9,109.7L279.2,109.0M285.9,102.3L290.8,97.5L291.4,98.1L287.4,102.2L290.1,104.9L294.0,101.0L294.7,101.7L290.8,105.6L293.8,108.6L297.9,104.5L298.6,105.2L293.7,110.1L285.9,102.3M299.5,104.3L291.7,96.5L292.4,95.8L303.8,97.6L297.2,91.0L297.9,90.3L305.7,98.1L305.0,98.8L293.6,97.0L300.2,103.6L299.5,104.3M310.2,93.9C309.3,94.8,308.1,95.2,306.8,95.2C305.3,95.1,303.9,94.5,302.7,93.3C301.6,92.2,300.9,90.9,300.8,89.4C300.8,88.0,301.2,86.8,302.1,85.9C303.1,84.9,304.2,84.5,305.6,84.5C307.1,84.6,308.4,85.3,309.6,86.4C310.8,87.7,311.4,89.0,311.4,90.5C311.5,91.9,311.0,93.0,310.2,93.9M309.4,93.2C310.1,92.4,310.4,91.5,310.3,90.4C310.2,89.2,309.7,88.2,308.8,87.3C308.3,86.8,307.8,86.4,307.3,86.2C306.8,85.9,306.2,85.8,305.7,85.7C304.5,85.5,303.6,85.8,302.9,86.6C302.1,87.3,301.8,88.3,302.0,89.4C302.1,90.5,302.6,91.6,303.6,92.5C304.5,93.5,305.6,94.0,306.7,94.1C307.8,94.2,308.7,93.9,309.4,93.2M315.3,88.5C315.1,88.7,314.9,88.8,314.7,88.7C314.5,88.7,314.2,88.6,314.0,88.4C313.8,88.2,313.7,88.0,313.7,87.7C313.7,87.5,313.8,87.3,313.9,87.1C314.1,87.0,314.2,86.9,314.5,86.9C314.7,86.9,314.9,87.0,315.2,87.3C315.4,87.5,315.5,87.7,315.5,87.9C315.5,88.2,315.5,88.4,315.3,88.5M317.2,76.9L318.1,77.8C317.4,77.8,316.8,78.0,316.2,78.2C316.1,78.3,315.9,78.4,315.8,78.5C315.7,78.6,315.5,78.7,315.4,78.8C314.9,79.3,314.6,80.0,314.7,80.8C314.8,81.5,315.1,82.2,315.7,82.8C316.3,83.4,317.0,83.7,317.7,83.8C318.5,83.8,319.2,83.5,319.7,83.0C320.1,82.7,320.3,82.3,320.4,81.8C320.6,81.4,320.6,80.9,320.6,80.3L321.6,81.2C321.4,81.8,321.3,82.3,321.1,82.7C320.9,83.0,320.6,83.4,320.4,83.7C319.6,84.4,318.7,84.8,317.7,84.8C316.6,84.7,315.7,84.3,314.9,83.6C314.2,82.8,313.8,81.9,313.7,80.8C313.7,79.8,314.1,78.9,314.8,78.1C315.2,77.7,315.6,77.4,316.1,77.2C316.4,77.1,316.7,77.0,317.2,76.9M325.5,78.6C324.8,79.2,323.9,79.6,322.9,79.6C321.9,79.6,320.9,79.2,320.1,78.4C319.3,77.6,318.9,76.7,318.8,75.7C318.8,74.7,319.1,73.8,319.9,73.1C320.6,72.4,321.4,72.0,322.5,72.1C323.5,72.1,324.4,72.5,325.2,73.3C326.0,74.1,326.4,75.0,326.4,76.1C326.4,77.1,326.1,77.9,325.5,78.6M324.7,78.0C325.2,77.5,325.4,76.9,325.4,76.1C325.4,75.4,325.0,74.7,324.4,74.1C323.8,73.4,323.1,73.1,322.3,73.1C321.5,73.0,321.0,73.3,320.5,73.7C320.0,74.2,319.8,74.8,319.9,75.5C319.9,76.3,320.2,77.0,320.9,77.6C321.5,78.2,322.2,78.6,322.9,78.6C323.7,78.7,324.3,78.5,324.7,78.0M333.1,63.9L336.5,67.3L335.8,68.0L332.2,64.4C331.8,64.0,331.4,63.9,330.9,63.9C330.5,63.9,330.2,64.1,329.9,64.4C329.4,64.8,329.2,65.4,329.3,66.2C329.3,66.9,329.7,67.6,330.3,68.2L332.9,70.8L332.2,71.6L328.6,68.0C328.3,67.6,327.9,67.5,327.4,67.5C326.9,67.5,326.6,67.6,326.3,67.9C325.8,68.4,325.7,69.0,325.7,69.7C325.7,70.5,326.1,71.2,326.7,71.8L329.3,74.4L328.6,75.1L323.3,69.8L324.0,69.2L324.9,70.0C324.7,69.5,324.8,69.0,325.0,68.4C325.1,68.0,325.4,67.6,325.7,67.2C326.2,66.7,326.8,66.5,327.4,66.4C327.9,66.4,328.2,66.4,328.5,66.6C328.4,66.2,328.4,65.8,328.4,65.4C328.5,64.7,328.8,64.1,329.3,63.7C329.8,63.1,330.4,62.8,331.1,62.9C331.8,62.9,332.5,63.2,333.1,63.9" stroke-opacity="0.50"/><path fill="#a0a0a4" fill-opacity="0.50" d="M265.3,336.5L257.5,328.7L258.5,327.7L267.9,331.1L264.6,321.6L265.6,320.6L273.4,328.4L272.6,329.1L265.9,322.4L269.5,332.3L269.1,332.6L259.2,329.1L266.0,335.8L265.3,336.5M269.3,316.9L270.1,316.2L280.7,321.1L279.8,322.0L276.2,320.2L273.3,323.2L274.9,326.8L274.1,327.7L269.3,316.9M275.3,319.8L270.6,317.5L272.8,322.3L275.3,319.8M273.7,312.5L278.5,307.7L279.2,308.4L275.1,312.4L277.8,315.1L281.7,311.2L282.4,311.9L278.5,315.8L281.5,318.9L285.6,314.8L286.3,315.5L281.4,320.3L273.7,312.5M279.2,307.0L285.2,301.0L285.9,301.7L283.3,304.3L290.4,311.4L289.6,312.2L282.5,305.1L279.9,307.7L279.2,307.0M285.9,300.3L290.8,295.5L291.4,296.1L287.4,300.2L290.1,302.9L294.0,299.0L294.7,299.7L290.8,303.6L293.8,306.6L297.9,302.5L298.6,303.2L293.7,308.1L285.9,300.3M299.5,302.3L291.7,294.5L292.4,293.8L303.8,295.6L297.2,289.0L297.9,288.3L305.7,296.1L305.0,296.8L293.6,295.0L300.2,301.6L299.5,302.3M310.2,291.9C309.3,292.8,308.1,293.2,306.8,293.2C305.3,293.1,303.9,292.5,302.7,291.3C301.6,290.2,300.9,288.9,300.8,287.4C300.8,286.0,301.2,284.8,302.1,283.9C303.1,282.9,304.2,282.5,305.6,282.5C307.1,282.6,308.4,283.3,309.6,284.4C310.8,285.7,311.4,287.0,311.4,288.5C311.5,289.9,311.0,291.0,310.2,291.9M309.4,291.2C310.1,290.4,310.4,289.5,310.3,288.4C310.2,287.2,309.7,286.2,308.8,285.3C308.3,284.8,307.8,284.4,307.3,284.2C306.8,283.9,306.2,283.8,305.7,283.7C304.5,283.5,303.6,283.8,302.9,284.6C302.1,285.3,301.8,286.3,302.0,287.4C302.1,288.5,302.6,289.6,303.6,290.5C304.5,291.5,305.6,292.0,306.7,292.1C307.8,292.2,308.7,291.9,309.4,291.2M315.3,286.5C315.1,286.7,314.9,286.8,314.7,286.7C314.5,286.7,314.2,286.6,314.0,286.4C313.8,286.2,313.7,286.0,313.7,285.7C313.7,285.5,313.8,285.3,313.9,285.1C314.1,285.0,314.2,284.9,314.5,284.9C314.7,284.9,314.9,285.0,315.2,285.3C315.4,285.5,315.5,285.7,315.5,285.9C315.5,286.2,315.5,286.4,315.3,286.5M317.2,274.9L318.1,275.8C317.4,275.8,316.8,276.0,316.2,276.2C316.1,276.3,315.9,276.4,315.8,276.5C315.7,276.6,315.5,276.7,315.4,276.8C314.9,277.3,314.6,278.0,314.7,278.8C314.8,279.5,315.1,280.2,315.7,280.8C316.3,281.4,317.0,281.7,317.7,281.8C318.5,281.8,319.2,281.5,319.7,281.0C320.1,280.7,320.3,280.3,320.4,279.8C320.6,279.4,320.6,278.9,320.6,278.3L321.6,279.2C321.4,279.8,321.3,280.3,321.1,280.7C320.9,281.0,320.6,281.4,320.4,281.7C319.6,282.4,318.7,282.8,317.7,282.8C316.6,282.7,315.7,282.3,314.9,281.6C314.2,280.8,313.8,279.9,313.7,278.8C313.7,277.8,314.1,276.9,314.8,276.1C315.2,275.7,315.6,275.4,316.1,275.2C316.4,275.1,316.7,275.0,317.2,274.9M325.5,276.6C324.8,277.2,323.9,277.6,322.9,277.6C321.9,277.6,320.9,277.2,320.1,276.4C319.3,275.6,318.9,274.7,318.8,273.7C318.8,272.7,319.1,271.8,319.9,271.1C320.6,270.4,321.4,270.0,322.5,270.1C323.5,270.1,324.4,270.5,325.2,271.3C326.0,272.1,326.4,273.0,326.4,274.1C326.4,275.1,326.1,275.9,325.5,276.6M324.7,276.0C325.2,275.5,325.4,274.9,325.4,274.1C325.4,273.4,325.0,272.7,324.4,272.1C323.8,271.4,323.1,271.1,322.3,271.1C321.5,271.0,321.0,271.3,320.5,271.7C320.0,272.2,319.8,272.8,319.9,273.5C319.9,274.3,320.2,275.0,320.9,275.6C321.5,276.2,322.2,276.6,322.9,276.6C323.7,276.7,324.3,276.5,324.7,276.0M333.1,261.9L336.5,265.3L335.8,266.0L332.2,262.4C331.8,262.0,331.4,261.9,330.9,261.9C330.5,261.9,330.2,262.1,329.9,262.4C329.4,262.8,329.2,263.4,329.3,264.2C329.3,264.9,329.7,265.6,330.3,266.2L332.9,268.8L332.2,269.6L328.6,266.0C328.3,265.6,327.9,265.5,327.4,265.5C326.9,265.5,326.6,265.6,326.3,265.9C325.8,266.4,325.7,267.0,325.7,267.7C325.7,268.5,326.1,269.2,326.7,269.8L329.3,272.4L328.6,273.1L323.3,267.8L324.0,267.2L324.9,268.0C324.7,267.5,324.8,267.0,325.0,266.4C325.1,266.0,325.4,265.6,325.7,265.2C326.2,264.7,326.8,264.5,327.4,264.4C327.9,264.4,328.2,264.4,328.5,264.6C328.4,264.2,328.4,263.8,328.4,263.4C328.5,262.7,328.8,262.1,329.3,261.7C329.8,261.1,330.4,260.8,331.1,260.9C331.8,260.9,332.5,261.2,333.1,261.9" stroke-opacity="0.50"/><path fill="#a0a0a4" fill-opacity="0.50" d="M265.3,534.5L257.5,526.7L258.5,525.7L267.9,529.1L264.6,519.6L265.6,518.6L273.4,526.4L272.6,527.1L265.9,520.4L269.5,530.3L269.1,530.6L259.2,527.1L266.0,533.8L265.3,534.5M269.3,514.9L270.1,514.2L280.7,519.1L279.8,520.0L276.2,518.2L273.3,521.2L274.9,524.8L274.1,525.7L269.3,514.9M275.3,517.8L270.6,515.5L272.8,520.3L275.3,517.8M273.7,510.5L278.5,505.7L279.2,506.4L275.1,510.4L277.8,513.1L281.7,509.2L282.4,509.9L278.5,513.8L281.5,516.9L285.6,512.8L286.3,513.5L281.4,518.3L273.7,510.5M279.2,505.0L285.2,499.0L285.9,499.7L283.3,502.3L290.4,509.4L289.6,510.2L282.5,503.1L279.9,505.7L279.2,505.0M285.9,498.3L290.8,493.5L291.4,494.1L287.4,498.2L290.1,500.9L294.0,497.0L294.7,497.7L290.8,501.6L293.8,504.6L297.9,500.5L298.6,501.2L293.7,506.1L285.9,498.3M299.5,500.3L291.7,492.5L292.4,491.8L303.8,493.6L297.2,487.0L297.9,486.3L305.7,494.1L305.0,494.8L293.6,493.0L300.2,499.6L299.5,500.3M310.2,489.9C309.3,490.8,308.1,491.2,306.8,491.2C305.3,491.1,303.9,490.5,302.7,489.3C301.6,488.2,300.9,486.9,300.8,485.4C300.8,484.0,301.2,482.8,302.1,481.9C303.1,480.9,304.2,480.5,305.6,480.5C307.1,480.6,308.4,481.3,309.6,482.4C310.8,483.7,311.4,485.0,311.4,486.5C311.5,487.9,311.0,489.0,310.2,489.9M309.4,489.2C310.1,488.4,310.4,487.5,310.3,486.4C310.2,485.2,309.7,484.2,308.8,483.3C308.3,482.8,307.8,482.4,307.3,482.2C306.8,481.9,306.2,481.8,305.7,481.7C304.5,481.5,303.6,481.8,302.9,482.6C302.1,483.3,301.8,484.3,302.0,485.4C302.1,486.5,302.6,487.6,303.6,488.5C304.5,489.5,305.6,490.0,306.7,490.1C307.8,490.2,308.7,489.9,309.4,489.2M315.3,484.5C315.1,484.7,314.9,484.8,314.7,484.7C314.5,484.7,314.2,484.6,314.0,484.4C313.8,484.2,313.7,484.0,313.7,483.7C313.7,483.5,313.8,483.3,313.9,483.1C314.1,483.0,314.2,482.9,314.5,482.9C314.7,482.9,314.9,483.0,315.2,483.3C315.4,483.5,315.5,483.7,315.5,483.9C315.5,484.2,315.5,484.4,315.3,484.5M317.2,472.9L318.1,473.8C317.4,473.8,316.8,474.0,316.2,474.2C316.1,474.3,315.9,474.4,315.8,474.5C315.7,474.6,315.5,474.7,315.4,474.8C314.9,475.3,314.6,476.0,314.7,476.8C314.8,477.5,315.1,478.2,315.7,478.8C316.3,479.4,317.0,479.7,317.7,479.8C318.5,479.8,319.2,479.5,319.7,479.0C320.1,478.7,320.3,478.3,320.4,477.8C320.6,477.4,320.6,476.9,320.6,476.3L321.6,477.2C321.4,477.8,321.3,478.3,321.1,478.7C320.9,479.0,320.6,479.4,320.4,479.7C319.6,480.4,318.7,480.8,317.7,480.8C316.6,480.7,315.7,480.3,314.9,479.6C314.2,478.8,313.8,477.9,313.7,476.8C313.7,475.8,314.1,474.9,314.8,474.1C315.2,473.7,315.6,473.4,316.1,473.2C316.4,473.1,316.7,473.0,317.2,472.9M325.5,474.6C324.8,475.2,323.9,475.6,322.9,475.6C321.9,475.6,320.9,475.2,320.1,474.4C319.3,473.6,318.9,472.7,318.8,471.7C318.8,470.7,319.1,469.8,319.9,469.1C320.6,468.4,321.4,468.0,322.5,468.1C323.5,468.1,324.4,468.5,325.2,469.3C326.0,470.1,326.4,471.0,326.4,472.1C326.4,473.1,326.1,473.9,325.5,474.6M324.7,474.0C325.2,473.5,325.4,472.9,325.4,472.1C325.4,471.4,325.0,470.7,324.4,470.1C323.8,469.4,323.1,469.1,322.3,469.1C321.5,469.0,321.0,469.3,320.5,469.7C320.0,470.2,319.8,470.8,319.9,471.5C319.9,472.3,320.2,473.0,320.9,473.6C321.5,474.2,322.2,474.6,322.9,474.6C323.7,474.7,324.3,474.5,324.7,474.0M333.1,459.9L336.5,463.3L335.8,464.0L332.2,460.4C331.8,460.0,331.4,459.9,330.9,459.9C330.5,459.9,330.2,460.1,329.9,460.4C329.4,460.8,329.2,461.4,329.3,462.2C329.3,462.9,329.7,463.6,330.3,464.2L332.9,466.8L332.2,467.6L328.6,464.0C328.3,463.6,327.9,463.5,327.4,463.5C326.9,463.5,326.6,463.6,326.3,463.9C325.8,464.4,325.7,465.0,325.7,465.7C325.7,466.5,326.1,467.2,326.7,467.8L329.3,470.4L328.6,471.1L323.3,465.8L324.0,465.2L324.9,466.0C324.7,465.5,324.8,465.0,325.0,464.4C325.1,464.0,325.4,463.6,325.7,463.2C326.2,462.7,326.8,462.5,327.4,462.4C327.9,462.4,328.2,462.4,328.5,462.6C328.4,462.2,328.4,461.8,328.4,461.4C328.5,460.7,328.8,460.1,329.3,459.7C329.8,459.1,330.4,458.8,331.1,458.9C331.8,458.9,332.5,459.2,333.1,459.9" stroke-opacity="0.50"/><path fill="#a0a0a4" fill-opacity="0.50" d="M265.3,732.5L257.5,724.7L258.5,723.7L267.9,727.1L264.6,717.6L265.6,716.6L273.4,724.4L272.6,725.1L265.9,718.4L269.5,728.3L269.1,728.6L259.2,725.1L266.0,731.8L265.3,732.5M269.3,712.9L270.1,712.2L280.7,717.1L279.8,718.0L276.2,716.2L273.3,719.2L274.9,722.8L274.1,723.7L269.3,712.9M275.3,715.8L270.6,713.5L272.8,718.3L275.3,715.8M273.7,708.5L278.5,703.7L279.2,704.4L275.1,708.4L277.8,711.1L281.7,707.2L282.4,707.9L278.5,711.8L281.5,714.9L285.6,710.8L286.3,711.5L281.4,716.3L273.7,708.5M279.2,703.0L285.2,697.0L285.9,697.7L283.3,700.3L290.4,707.4L289.6,708.2L282.5,701.1L279.9,703.7L279.2,703.0M285.9,696.3L290.8,691.5L291.4,692.1L287.4,696.2L290.1,698.9L294.0,695.0L294.7,695.7L290.8,699.6L293.8,702.6L297.9,698.5L298.6,699.2L293.7,704.1L285.9,696.3M299.5,698.3L291.7,690.5L292.4,689.8L303.8,691.6L297.2,685.0L297.9,684.3L305.7,692.1L305.0,692.8L293.6,691.0L300.2,697.6L299.5,698.3M310.2,687.9C309.3,688.8,308.1,689.2,306.8,689.2C305.3,689.1,303.9,688.5,302.7,687.3C301.6,686.2,300.9,684.9,300.8,683.4C300.8,682.0,301.2,680.8,302.1,679.9C303.1,678.9,304.2,678.5,305.6,678.5C307.1,678.6,308.4,679.3,309.6,680.4C310.8,681.7,311.4,683.0,311.4,684.5C311.5,685.9,311.0,687.0,310.2,687.9M309.4,687.2C310.1,686.4,310.4,685.5,310.3,684.4C310.2,683.2,309.7,682.2,308.8,681.3C308.3,680.8,307.8,680.4,307.3,680.2C306.8,679.9,306.2,679.8,305.7,679.7C304.5,679.5,303.6,679.8,302.9,680.6C302.1,681.3,301.8,682.3,302.0,683.4C302.1,684.5,302.6,685.6,303.6,686.5C304.5,687.5,305.6,688.0,306.7,688.1C307.8,688.2,308.7,687.9,309.4,687.2M315.3,682.5C315.1,682.7,314.9,682.8,314.7,682.7C314.5,682.7,314.2,682.6,314.0,682.4C313.8,682.2,313.7,682.0,313.7,681.7C313.7,681.5,313.8,681.3,313.9,681.1C314.1,681.0,314.2,680.9,314.5,680.9C314.7,680.9,314.9,681.0,315.2,681.3C315.4,681.5,315.5,681.7,315.5,681.9C315.5,682.2,315.5,682.4,315.3,682.5M317.2,670.9L318.1,671.8C317.4,671.8,316.8,672.0,316.2,672.2C316.1,672.3,315.9,672.4,315.8,672.5C315.7,672.6,315.5,672.7,315.4,672.8C314.9,673.3,314.6,674.0,314.7,674.8C314.8,675.5,315.1,676.2,315.7,676.8C316.3,677.4,317.0,677.7,317.7,677.8C318.5,677.8,319.2,677.5,319.7,677.0C320.1,676.7,320.3,676.3,320.4,675.8C320.6,675.4,320.6,674.9,320.6,674.3L321.6,675.2C321.4,675.8,321.3,676.3,321.1,676.7C320.9,677.0,320.6,677.4,320.4,677.7C319.6,678.4,318.7,678.8,317.7,678.8C316.6,678.7,315.7,678.3,314.9,677.6C314.2,676.8,313.8,675.9,313.7,674.8C313.7,673.8,314.1,672.9,314.8,672.1C315.2,671.7,315.6,671.4,316.1,671.2C316.4,671.1,316.7,671.0,317.2,670.9M325.5,672.6C324.8,673.2,323.9,673.6,322.9,673.6C321.9,673.6,320.9,673.2,320.1,672.4C319.3,671.6,318.9,670.7,318.8,669.7C318.8,668.7,319.1,667.8,319.9,667.1C320.6,666.4,321.4,666.0,322.5,666.1C323.5,666.1,324.4,666.5,325.2,667.3C326.0,668.1,326.4,669.0,326.4,670.1C326.4,671.1,326.1,671.9,325.5,672.6M324.7,672.0C325.2,671.5,325.4,670.9,325.4,670.1C325.4,669.4,325.0,668.7,324.4,668.1C323.8,667.4,323.1,667.1,322.3,667.1C321.5,667.0,321.0,667.3,320.5,667.7C320.0,668.2,319.8,668.8,319.9,669.5C319.9,670.3,320.2,671.0,320.9,671.6C321.5,672.2,322.2,672.6,322.9,672.6C323.7,672.7,324.3,672.5,324.7,672.0M333.1,657.9L336.5,661.3L335.8,662.0L332.2,658.4C331.8,658.0,331.4,657.9,330.9,657.9C330.5,657.9,330.2,658.1,329.9,658.4C329.4,658.8,329.2,659.4,329.3,660.2C329.3,660.9,329.7,661.6,330.3,662.2L332.9,664.8L332.2,665.6L328.6,662.0C328.3,661.6,327.9,661.5,327.4,661.5C326.9,661.5,326.6,661.6,326.3,661.9C325.8,662.4,325.7,663.0,325.7,663.7C325.7,664.5,326.1,665.2,326.7,665.8L329.3,668.4L328.6,669.1L323.3,663.8L324.0,663.2L324.9,664.0C324.7,663.5,324.8,663.0,325.0,662.4C325.1,662.0,325.4,661.6,325.7,661.2C326.2,660.7,326.8,660.5,327.4,660.4C327.9,660.4,328.2,660.4,328.5,660.6C328.4,660.2,328.4,659.8,328.4,659.4C328.5,658.7,328.8,658.1,329.3,657.7C329.8,657.1,330.4,656.8,331.1,656.9C331.8,656.9,332.5,657.2,333.1,657.9" stroke-opacity="0.50"/><path fill="#a0a0a4" fill-opacity="0.50" d="M463.3,138.5L455.5,130.7L456.5,129.7L465.9,133.1L462.6,123.6L463.6,122.6L471.4,130.4L470.6,131.1L463.9,124.4L467.5,134.3L467.1,134.6L457.2,131.1L464.0,137.8L463.3,138.5M467.3,118.9L468.1,118.2L478.7,123.1L477.8,124.0L474.2,122.2L471.3,125.2L472.9,128.8L472.1,129.7L467.3,118.9M473.3,121.8L468.6,119.5L470.8,124.3L473.3,121.8M471.7,114.5L476.5,109.7L477.2,110.4L473.1,114.4L475.8,117.1L479.7,113.2L480.4,113.9L476.5,117.8L479.5,120.9L483.6,116.8L484.3,117.5L479.4,122.3L471.7,114.5M477.2,109.0L483.2,103.0L483.9,103.7L481.3,106.3L488.4,113.4L487.6,114.2L480.5,107.1L477.9,109.7L477.2,109.0M483.9,102.3L488.8,97.5L489.4,98.1L485.4,102.2L488.1,104.9L492.0,101.0L492.7,101.7L488.8,105.6L491.8,108.6L495.9,104.5L496.6,105.2L491.7,110.1L483.9,102.3M497.5,104.3L489.7,96.5L490.4,95.8L501.8,97.6L495.2,91.0L495.9,90.3L503.7,98.1L503.0,98.8L491.6,97.0L498.2,103.6L497.5,104.3M508.2,93.9C507.3,94.8,506.1,95.2,504.8,95.2C503.3,95.1,501.9,94.5,500.7,93.3C499.6,92.2,498.9,90.9,498.8,89.4C498.8,88.0,499.2,86.8,500.1,85.9C501.1,84.9,502.2,84.5,503.6,84.5C505.1,84.6,506.4,85.3,507.6,86.4C508.8,87.7,509.4,89.0,509.4,90.5C509.5,91.9,509.0,93.0,508.2,93.9M507.4,93.2C508.1,92.4,508.4,91.5,508.3,90.4C508.2,89.2,507.7,88.2,506.8,87.3C506.3,86.8,505.8,86.4,505.3,86.2C504.8,85.9,504.2,85.8,503.7,85.7C502.5,85.5,501.6,85.8,500.9,86.6C500.1,87.3,499.8,88.3,500.0,89.4C500.1,90.5,500.6,91.6,501.6,92.5C502.5,93.5,503.6,94.0,504.7,94.1C505.8,94.2,506.7,93.9,507.4,93.2M513.3,88.5C513.1,88.7,512.9,88.8,512.7,88.7C512.5,88.7,512.2,88.6,512.0,88.4C511.8,88.2,511.7,88.0,511.7,87.7C511.7,87.5,511.8,87.3,511.9,87.1C512.1,87.0,512.2,86.9,512.5,86.9C512.7,86.9,512.9,87.0,513.2,87.3C513.4,87.5,513.5,87.7,513.5,87.9C513.5,88.2,513.5,88.4,513.3,88.5M515.2,76.9L516.1,77.8C515.4,77.8,514.8,78.0,514.2,78.2C514.1,78.3,513.9,78.4,513.8,78.5C513.7,78.6,513.5,78.7,513.4,78.8C512.9,79.3,512.6,80.0,512.7,80.8C512.8,81.5,513.1,82.2,513.7,82.8C514.3,83.4,515.0,83.7,515.7,83.8C516.5,83.8,517.2,83.5,517.7,83.0C518.1,82.7,518.3,82.3,518.4,81.8C518.6,81.4,518.6,80.9,518.6,80.3L519.6,81.2C519.4,81.8,519.3,82.3,519.1,82.7C518.9,83.0,518.6,83.4,518.4,83.7C517.6,84.4,516.7,84.8,515.7,84.8C514.6,84.7,513.7,84.3,512.9,83.6C512.2,82.8,511.8,81.9,511.7,80.8C511.7,79.8,512.1,78.9,512.8,78.1C513.2,77.7,513.6,77.4,514.1,77.2C514.4,77.1,514.7,77.0,515.2,76.9M523.5,78.6C522.8,79.2,521.9,79.6,520.9,79.6C519.9,79.6,518.9,79.2,518.1,78.4C517.3,77.6,516.9,76.7,516.8,75.7C516.8,74.7,517.1,73.8,517.9,73.1C518.6,72.4,519.4,72.0,520.5,72.1C521.5,72.1,522.4,72.5,523.2,73.3C524.0,74.1,524.4,75.0,524.4,76.1C524.4,77.1,524.1,77.9,523.5,78.6M522.7,78.0C523.2,77.5,523.4,76.9,523.4,76.1C523.4,75.4,523.0,74.7,522.4,74.1C521.8,73.4,521.1,73.1,520.3,73.1C519.5,73.0,519.0,73.3,518.5,73.7C518.0,74.2,517.8,74.8,517.9,75.5C517.9,76.3,518.2,77.0,518.9,77.6C519.5,78.2,520.2,78.6,520.9,78.6C521.7,78.7,522.3,78.5,522.7,78.0M531.1,63.9L534.5,67.3L533.8,68.0L530.2,64.4C529.8,64.0,529.4,63.9,528.9,63.9C528.5,63.9,528.2,64.1,527.9,64.4C527.4,64.8,527.2,65.4,527.3,66.2C527.3,66.9,527.7,67.6,528.3,68.2L530.9,70.8L530.2,71.6L526.6,68.0C526.3,67.6,525.9,67.5,525.4,67.5C524.9,67.5,524.6,67.6,524.3,67.9C523.8,68.4,523.7,69.0,523.7,69.7C523.7,70.5,524.1,71.2,524.7,71.8L527.3,74.4L526.6,75.1L521.3,69.8L522.0,69.2L522.9,70.0C522.7,69.5,522.8,69.0,523.0,68.4C523.1,68.0,523.4,67.6,523.7,67.2C524.2,66.7,524.8,66.5,525.4,66.4C525.9,66.4,526.2,66.4,526.5,66.6C526.4,66.2,526.4,65.8,526.4,65.4C526.5,64.7,526.8,64.1,527.3,63.7C527.8,63.1,528.4,62.8,529.1,62.9C529.8,62.9,530.5,63.2,531.1,63.9" stroke-opacity="0.50"/><path fill="#a0a0a4" fill-opacity="0.50" d="M463.3,336.5L455.5,328.7L456.5,327.7L465.9,331.1L462.6,321.6L463.6,320.6L471.4,328.4L470.6,329.1L463.9,322.4L467.5,332.3L467.1,332.6L457.2,329.1L464.0,335.8L463.3,336.5M467.3,316.9L468.1,316.2L478.7,321.1L477.8,322.0L474.2,320.2L471.3,323.2L472.9,326.8L472.1,327.7L467.3,316.9M473.3,319.8L468.6,317.5L470.8,322.3L473.3,319.8M471.7,312.5L476.5,307.7L477.2,308.4L473.1,312.4L475.8,315.1L479.7,311.2L480.4,311.9L476.5,315.8L479.5,318.9L483.6,314.8L484.3,315.5L479.4,320.3L471.7,312.5M477.2,307.0L483.2,301.0L483.9,301.7L481.3,304.3L488.4,311.4L487.6,312.2L480.5,305.1L477.9,307.7L477.2,307.0M483.9,300.3L488.8,295.5L489.4,296.1L485.4,300.2L488.1,302.9L492.0,299.0L492.7,299.7L488.8,303.6L491.8,306.6L495.9,302.5L496.6,303.2L491.7,308.1L483.9,300.3M497.5,302.3L489.7,294.5L490.4,293.8L501.8,295.6L495.2,289.0L495.9,288.3L503.7,296.1L503.0,296.8L491.6,295.0L498.2,301.6L497.5,302.3M508.2,291.9C507.3,292.8,506.1,293.2,504.8,293.2C503.3,293.1,501.9,292.5,500.7,291.3C499.6,290.2,498.9,288.9,498.8,287.4C498.8,286.0,499.2,284.8,500.1,283.9C501.1,282.9,502.2,282.5,503.6,282.5C505.1,282.6,506.4,283.3,507.6,284.4C508.8,285.7,509.4,287.0,509.4,288.5C509.5,289.9,509.0,291.0,508.2,291.9M507.4,291.2C508.1,290.4,508.4,289.5,508.3,288.4C508.2,287.2,507.7,286.2,506.8,285.3C506.3,284.8,505.8,284.4,505.3,284.2C504.8,283.9,504.2,283.8,503.7,283.7C502.5,283.5,501.6,283.8,500.9,284.6C500.1,285.3,499.8,286.3,500.0,287.4C500.1,288.5,500.6,289.6,501.6,290.5C502.5,291.5,503.6,292.0,504.7,292.1C505.8,292.2,506.7,291.9,507.4,291.2M513.3,286.5C513.1,286.7,512.9,286.8,512.7,286.7C512.5,286.7,512.2,286.6,512.0,286.4C511.8,286.2,511.7,286.0,511.7,285.7C511.7,285.5,511.8,285.3,511.9,285.1C512.1,285.0,512.2,284.9,512.5,284.9C512.7,284.9,512.9,285.0,513.2,285.3C513.4,285.5,513.5,285.7,513.5,285.9C513.5,286.2,513.5,286.4,513.3,286.5M515.2,274.9L516.1,275.8C515.4,275.8,514.8,276.0,514.2,276.2C514.1,276.3,513.9,276.4,513.8,276.5C513.7,276.6,513.5,276.7,513.4,276.8C512.9,277.3,512.6,278.0,512.7,278.8C512.8,279.5,513.1,280.2,513.7,280.8C514.3,281.4,515.0,281.7,515.7,281.8C516.5,281.8,517.2,281.5,517.7,281.0C518.1,280.7,518.3,280.3,518.4,279.8C518.6,279.4,518.6,278.9,518.6,278.3L519.6,279.2C519.4,279.8,519.3,280.3,519.1,280.7C518.9,281.0,518.6,281.4,518.4,281.7C517.6,282.4,516.7,282.8,515.7,282.8C514.6,282.7,513.7,282.3,512.9,281.6C512.2,280.8,511.8,279.9,511.7,278.8C511.7,277.8,512.1,276.9,512.8,276.1C513.2,275.7,513.6,275.4,514.1,275.2C514.4,275.1,514.7,275.0,515.2,274.9M523.5,276.6C522.8,277.2,521.9,277.6,520.9,277.6C519.9,277.6,518.9,277.2,518.1,276.4C517.3,275.6,516.9,274.7,516.8,273.7C516.8,272.7,517.1,271.8,517.9,271.1C518.6,270.4,519.4,270.0,520.5,270.1C521.5,270.1,522.4,270.5,523.2,271.3C524.0,272.1,524.4,273.0,524.4,274.1C524.4,275.1,524.1,275.9,523.5,276.6M522.7,276.0C523.2,275.5,523.4,274.9,523.4,274.1C523.4,273.4,523.0,272.7,522.4,272.1C521.8,271.4,521.1,271.1,520.3,271.1C519.5,271.0,519.0,271.3,518.5,271.7C518.0,272.2,517.8,272.8,517.9,273.5C517.9,274.3,518.2,275.0,518.9,275.6C519.5,276.2,520.2,276.6,520.9,276.6C521.7,276.7,522.3,276.5,522.7,276.0M531.1,261.9L534.5,265.3L533.8,266.0L530.2,262.4C529.8,262.0,529.4,261.9,528.9,261.9C528.5,261.9,528.2,262.1,527.9,262.4C527.4,262.8,527.2,263.4,527.3,264.2C527.3,264.9,527.7,265.6,528.3,266.2L530.9,268.8L530.2,269.6L526.6,266.0C526.3,265.6,525.9,265.5,525.4,265.5C524.9,265.5,524.6,265.6,524.3,265.9C523.8,266.4,523.7,267.0,523.7,267.7C523.7,268.5,524.1,269.2,524.7,269.8L527.3,272.4L526.6,273.1L521.3,267.8L522.0,267.2L522.9,268.0C522.7,267.5,522.8,267.0,523.0,266.4C523.1,266.0,523.4,265.6,523.7,265.2C524.2,264.7,524.8,264.5,525.4,264.4C525.9,264.4,526.2,264.4,526.5,264.6C526.4,264.2,526.4,263.8,526.4,263.4C526.5,262.7,526.8,262.1,527.3,261.7C527.8,261.1,528.4,260.8,529.1,260.9C529.8,260.9,530.5,261.2,531.1,261.9" stroke-opacity="0.50"/><path fill="#a0a0a4" fill-opacity="0.50" d="M463.3,534.5L455.5,526.7L456.5,525.7L465.9,529.1L462.6,519.6L463.6,518.6L471.4,526.4L470.6,527.1L463.9,520.4L467.5,530.3L467.1,530.6L457.2,527.1L464.0,533.8L463.3,534.5M467.3,514.9L468.1,514.2L478.7,519.1L477.8,520.0L474.2,518.2L471.3,521.2L472.9,524.8L472.1,525.7L467.3,514.9M473.3,517.8L468.6,515.5L470.8,520.3L473.3,517.8M471.7,510.5L476.5,505.7L477.2,506.4L473.1,510.4L475.8,513.1L479.7,509.2L480.4,509.9L476.5,513.8L479.5,516.9L483.6,512.8L484.3,513.5L479.4,518.3L471.7,510.5M477.2,505.0L483.2,499.0L483.9,499.7L481.3,502.3L488.4,509.4L487.6,510.2L480.5,503.1L477.9,505.7L477.2,505.0M483.9,498.3L488.8,493.5L489.4,494.1L485.4,498.2L488.1,500.9L492.0,497.0L492.7,497.7L488.8,501.6L491.8,504.6L495.9,500.5L496.6,501.2L491.7,506.1L483.9,498.3M497.5,500.3L489.7,492.5L490.4,491.8L501.8,493.6L495.2,487.0L495.9,486.3L503.7,494.1L503.0,494.8L491.6,493.0L498.2,499.6L497.5,500.3M508.2,489.9C507.3,490.8,506.1,491.2,504.8,491.2C503.3,491.1,501.9,490.5,500.7,489.3C499.6,488.2,498.9,486.9,498.8,485.4C498.8,484.0,499.2,482.8,500.1,481.9C501.1,480.9,502.2,480.5,503.6,480.5C505.1,480.6,506.4,481.3,507.6,482.4C508.8,483.7,509.4,485.0,509.4,486.5C509.5,487.9,509.0,489.0,508.2,489.9M507.4,489.2C508.1,488.4,508.4,487.5,508.3,486.4C508.2,485.2,507.7,484.2,506.8,483.3C506.3,482.8,505.8,482.4,505.3,482.2C504.8,481.9,504.2,481.8,503.7,481.7C502.5,481.5,501.6,481.8,500.9,482.6C500.1,483.3,499.8,484.3,500.0,485.4C500.1,486.5,500.6,487.6,501.6,488.5C502.5,489.5,503.6,490.0,504.7,490.1C505.8,490.2,506.7,489.9,507.4,489.2M513.3,484.5C513.1,484.7,512.9,484.8,512.7,484.7C512.5,484.7,512.2,484.6,512.0,484.4C511.8,484.2,511.7,484.0,511.7,483.7C511.7,483.5,511.8,483.3,511.9,483.1C512.1,483.0,512.2,482.9,512.5,482.9C512.7,482.9,512.9,483.0,513.2,483.3C513.4,483.5,513.5,483.7,513.5,483.9C513.5,484.2,513.5,484.4,513.3,484.5M515.2,472.9L516.1,473.8C515.4,473.8,514.8,474.0,514.2,474.2C514.1,474.3,513.9,474.4,513.8,474.5C513.7,474.6,513.5,474.7,513.4,474.8C512.9,475.3,512.6,476.0,512.7,476.8C512.8,477.5,513.1,478.2,513.7,478.8C514.3,479.4,515.0,479.7,515.7,479.8C516.5,479.8,517.2,479.5,517.7,479.0C518.1,478.7,518.3,478.3,518.4,477.8C518.6,477.4,518.6,476.9,518.6,476.3L519.6,477.2C519.4,477.8,519.3,478.3,519.1,478.7C518.9,479.0,518.6,479.4,518.4,479.7C517.6,480.4,516.7,480.8,515.7,480.8C514.6,480.7,513.7,480.3,512.9,479.6C512.2,478.8,511.8,477.9,511.7,476.8C511.7,475.8,512.1,474.9,512.8,474.1C513.2,473.7,513.6,473.4,514.1,473.2C514.4,473.1,514.7,473.0,515.2,472.9M523.5,474.6C522.8,475.2,521.9,475.6,520.9,475.6C519.9,475.6,518.9,475.2,518.1,474.4C517.3,473.6,516.9,472.7,516.8,471.7C516.8,470.7,517.1,469.8,517.9,469.1C518.6,468.4,519.4,468.0,520.5,468.1C521.5,468.1,522.4,468.5,523.2,469.3C524.0,470.1,524.4,471.0,524.4,472.1C524.4,473.1,524.1,473.9,523.5,474.6M522.7,474.0C523.2,473.5,523.4,472.9,523.4,472.1C523.4,471.4,523.0,470.7,522.4,470.1C521.8,469.4,521.1,469.1,520.3,469.1C519.5,469.0,519.0,469.3,518.5,469.7C518.0,470.2,517.8,470.8,517.9,471.5C517.9,472.3,518.2,473.0,518.9,473.6C519.5,474.2,520.2,474.6,520.9,474.6C521.7,474.7,522.3,474.5,522.7,474.0M531.1,459.9L534.5,463.3L533.8,464.0L530.2,460.4C529.8,460.0,529.4,459.9,528.9,459.9C528.5,459.9,528.2,460.1,527.9,460.4C527.4,460.8,527.2,461.4,527.3,462.2C527.3,462.9,527.7,463.6,528.3,464.2L530.9,466.8L530.2,467.6L526.6,464.0C526.3,463.6,525.9,463.5,525.4,463.5C524.9,463.5,524.6,463.6,524.3,463.9C523.8,464.4,523.7,465.0,523.7,465.7C523.7,466.5,524.1,467.2,524.7,467.8L527.3,470.4L526.6,471.1L521.3,465.8L522.0,465.2L522.9,466.0C522.7,465.5,522.8,465.0,523.0,464.4C523.1,464.0,523.4,463.6,523.7,463.2C524.2,462.7,524.8,462.5,525.4,462.4C525.9,462.4,526.2,462.4,526.5,462.6C526.4,462.2,526.4,461.8,526.4,461.4C526.5,460.7,526.8,460.1,527.3,459.7C527.8,459.1,528.4,458.8,529.1,458.9C529.8,458.9,530.5,459.2,531.1,459.9" stroke-opacity="0.50"/><path fill="#a0a0a4" fill-opacity="0.50" d="M463.3,732.5L455.5,724.7L456.5,723.7L465.9,727.1L462.6,717.6L463.6,716.6L471.4,724.4L470.6,725.1L463.9,718.4L467.5,728.3L467.1,728.6L457.2,725.1L464.0,731.8L463.3,732.5M467.3,712.9L468.1,712.2L478.7,717.1L477.8,718.0L474.2,716.2L471.3,719.2L472.9,722.8L472.1,723.7L467.3,712.9M473.3,715.8L468.6,713.5L470.8,718.3L473.3,715.8M471.7,708.5L476.5,703.7L477.2,704.4L473.1,708.4L475.8,711.1L479.7,707.2L480.4,707.9L476.5,711.8L479.5,714.9L483.6,710.8L484.3,711.5L479.4,716.3L471.7,708.5M477.2,703.0L483.2,697.0L483.9,697.7L481.3,700.3L488.4,707.4L487.6,708.2L480.5,701.1L477.9,703.7L477.2,703.0M483.9,696.3L488.8,691.5L489.4,692.1L485.4,696.2L488.1,698.9L492.0,695.0L492.7,695.7L488.8,699.6L491.8,702.6L495.9,698.5L496.6,699.2L491.7,704.1L483.9,696.3M497.5,698.3L489.7,690.5L490.4,689.8L501.8,691.6L495.2,685.0L495.9,684.3L503.7,692.1L503.0,692.8L491.6,691.0L498.2,697.6L497.5,698.3M508.2,687.9C507.3,688.8,506.1,689.2,504.8,689.2C503.3,689.1,501.9,688.5,500.7,687.3C499.6,686.2,498.9,684.9,498.8,683.4C498.8,682.0,499.2,680.8,500.1,679.9C501.1,678.9,502.2,678.5,503.6,678.5C505.1,678.6,506.4,679.3,507.6,680.4C508.8,681.7,509.4,683.0,509.4,684.5C509.5,685.9,509.0,687.0,508.2,687.9M507.4,687.2C508.1,686.4,508.4,685.5,508.3,684.4C508.2,683.2,507.7,682.2,506.8,681.3C506.3,680.8,505.8,680.4,505.3,680.2C504.8,679.9,504.2,679.8,503.7,679.7C502.5,679.5,501.6,679.8,500.9,680.6C500.1,681.3,499.8,682.3,500.0,683.4C500.1,684.5,500.6,685.6,501.6,686.5C502.5,687.5,503.6,688.0,504.7,688.1C505.8,688.2,506.7,687.9,507.4,687.2M513.3,682.5C513.1,682.7,512.9,682.8,512.7,682.7C512.5,682.7,512.2,682.6,512.0,682.4C511.8,682.2,511.7,682.0,511.7,681.7C511.7,681.5,511.8,681.3,511.9,681.1C512.1,681.0,512.2,680.9,512.5,680.9C512.7,680.9,512.9,681.0,513.2,681.3C513.4,681.5,513.5,681.7,513.5,681.9C513.5,682.2,513.5,682.4,513.3,682.5M515.2,670.9L516.1,671.8C515.4,671.8,514.8,672.0,514.2,672.2C514.1,672.3,513.9,672.4,513.8,672.5C513.7,672.6,513.5,672.7,513.4,672.8C512.9,673.3,512.6,674.0,512.7,674.8C512.8,675.5,513.1,676.2,513.7,676.8C514.3,677.4,515.0,677.7,515.7,677.8C516.5,677.8,517.2,677.5,517.7,677.0C518.1,676.7,518.3,676.3,518.4,675.8C518.6,675.4,518.6,674.9,518.6,674.3L519.6,675.2C519.4,675.8,519.3,676.3,519.1,676.7C518.9,677.0,518.6,677.4,518.4,677.7C517.6,678.4,516.7,678.8,515.7,678.8C514.6,678.7,513.7,678.3,512.9,677.6C512.2,676.8,511.8,675.9,511.7,674.8C511.7,673.8,512.1,672.9,512.8,672.1C513.2,671.7,513.6,671.4,514.1,671.2C514.4,671.1,514.7,671.0,515.2,670.9M523.5,672.6C522.8,673.2,521.9,673.6,520.9,673.6C519.9,673.6,518.9,673.2,518.1,672.4C517.3,671.6,516.9,670.7,516.8,669.7C516.8,668.7,517.1,667.8,517.9,667.1C518.6,666.4,519.4,666.0,520.5,666.1C521.5,666.1,522.4,666.5,523.2,667.3C524.0,668.1,524.4,669.0,524.4,670.1C524.4,671.1,524.1,671.9,523.5,672.6M522.7,672.0C523.2,671.5,523.4,670.9,523.4,670.1C523.4,669.4,523.0,668.7,522.4,668.1C521.8,667.4,521.1,667.1,520.3,667.1C519.5,667.0,519.0,667.3,518.5,667.7C518.0,668.2,517.8,668.8,517.9,669.5C517.9,670.3,518.2,671.0,518.9,671.6C519.5,672.2,520.2,672.6,520.9,672.6C521.7,672.7,522.3,672.5,522.7,672.0M531.1,657.9L534.5,661.3L533.8,662.0L530.2,658.4C529.8,658.0,529.4,657.9,528.9,657.9C528.5,657.9,528.2,658.1,527.9,658.4C527.4,658.8,527.2,659.4,527.3,660.2C527.3,660.9,527.7,661.6,528.3,662.2L530.9,664.8L530.2,665.6L526.6,662.0C526.3,661.6,525.9,661.5,525.4,661.5C524.9,661.5,524.6,661.6,524.3,661.9C523.8,662.4,523.7,663.0,523.7,663.7C523.7,664.5,524.1,665.2,524.7,665.8L527.3,668.4L526.6,669.1L521.3,663.8L522.0,663.2L522.9,664.0C522.7,663.5,522.8,663.0,523.0,662.4C523.1,662.0,523.4,661.6,523.7,661.2C524.2,660.7,524.8,660.5,525.4,660.4C525.9,660.4,526.2,660.4,526.5,660.6C526.4,660.2,526.4,659.8,526.4,659.4C526.5,658.7,526.8,658.1,527.3,657.7C527.8,657.1,528.4,656.8,529.1,656.9C529.8,656.9,530.5,657.2,531.1,657.9" stroke-opacity="0.50"/><path fill="#a0a0a4" fill-opacity="0.50" d="M661.3,138.5L653.5,130.7L654.5,129.7L663.9,133.1L660.6,123.6L661.6,122.6L669.4,130.4L668.6,131.1L661.9,124.4L665.5,134.3L665.1,134.6L655.2,131.1L662.0,137.8L661.3,138.5M665.3,118.9L666.1,118.2L676.7,123.1L675.8,124.0L672.2,122.2L669.3,125.2L670.9,128.8L670.1,129.7L665.3,118.9M671.3,121.8L666.6,119.5L668.8,124.3L671.3,121.8M669.7,114.5L674.5,109.7L675.2,110.4L671.1,114.4L673.8,117.1L677.7,113.2L678.4,113.9L674.5,117.8L677.5,120.9L681.6,116.8L682.3,117.5L677.4,122.3L669.7,114.5M675.2,109.0L681.2,103.0L681.9,103.7L679.3,106.3L686.4,113.4L685.6,114.2L678.5,107.1L675.9,109.7L675.2,109.0M681.9,102.3L686.8,97.5L687.4,98.1L683.4,102.2L686.1,104.9L690.0,101.0L690.7,101.7L686.8,105.6L689.8,108.6L693.9,104.5L694.6,105.2L689.7,110.1L681.9,102.3M695.5,104.3L687.7,96.5L688.4,95.8L699.8,97.6L693.2,91.0L693.9,90.3L701.7,98.1L701.0,98.8L689.6,97.0L696.2,103.6L695.5,104.3M706.2,93.9C705.3,94.8,704.1,95.2,702.8,95.2C701.3,95.1,699.9,94.5,698.7,93.3C697.6,92.2,696.9,90.9,696.8,89.4C696.8,88.0,697.2,86.8,698.1,85.9C699.1,84.9,700.2,84.5,701.6,84.5C703.1,84.6,704.4,85.3,705.6,86.4C706.8,87.7,707.4,89.0,707.4,90.5C707.5,91.9,707.0,93.0,706.2,93.9M705.4,93.2C706.1,92.4,706.4,91.5,706.3,90.4C706.2,89.2,705.7,88.2,704.8,87.3C704.3,86.8,703.8,86.4,703.3,86.2C702.8,85.9,702.2,85.8,701.7,85.7C700.5,85.5,699.6,85.8,698.9,86.6C698.1,87.3,697.8,88.3,698.0,89.4C698.1,90.5,698.6,91.6,699.6,92.5C700.5,93.5,701.6,94.0,702.7,94.1C703.8,94.2,704.7,93.9,705.4,93.2M711.3,88.5C711.1,88.7,710.9,88.8,710.7,88.7C710.5,88.7,710.2,88.6,710.0,88.4C709.8,88.2,709.7,88.0,709.7,87.7C709.7,87.5,709.8,87.3,709.9,87.1C710.1,87.0,710.2,86.9,710.5,86.9C710.7,86.9,710.9,87.0,711.2,87.3C711.4,87.5,711.5,87.7,711.5,87.9C711.5,88.2,711.5,88.4,711.3,88.5M713.2,76.9L714.1,77.8C713.4,77.8,712.8,78.0,712.2,78.2C712.1,78.3,711.9,78.4,711.8,78.5C711.7,78.6,711.5,78.7,711.4,78.8C710.9,79.3,710.6,80.0,710.7,80.8C710.8,81.5,711.1,82.2,711.7,82.8C712.3,83.4,713.0,83.7,713.7,83.8C714.5,83.8,715.2,83.5,715.7,83.0C716.1,82.7,716.3,82.3,716.4,81.8C716.6,81.4,716.6,80.9,716.6,80.3L717.6,81.2C717.4,81.8,717.3,82.3,717.1,82.7C716.9,83.0,716.6,83.4,716.4,83.7C715.6,84.4,714.7,84.8,713.7,84.8C712.6,84.7,711.7,84.3,710.9,83.6C710.2,82.8,709.8,81.9,709.7,80.8C709.7,79.8,710.1,78.9,710.8,78.1C711.2,77.7,711.6,77.4,712.1,77.2C712.4,77.1,712.7,77.0,713.2,76.9M721.5,78.6C720.8,79.2,719.9,79.6,718.9,79.6C717.9,79.6,716.9,79.2,716.1,78.4C715.3,77.6,714.9,76.7,714.8,75.7C714.8,74.7,715.1,73.8,715.9,73.1C716.6,72.4,717.4,72.0,718.5,72.1C719.5,72.1,720.4,72.5,721.2,73.3C722.0,74.1,722.4,75.0,722.4,76.1C722.4,77.1,722.1,77.9,721.5,78.6M720.7,78.0C721.2,77.5,721.4,76.9,721.4,76.1C721.4,75.4,721.0,74.7,720.4,74.1C719.8,73.4,719.1,73.1,718.3,73.1C717.5,73.0,717.0,73.3,716.5,73.7C716.0,74.2,715.8,74.8,715.9,75.5C715.9,76.3,716.2,77.0,716.9,77.6C717.5,78.2,718.2,78.6,718.9,78.6C719.7,78.7,720.3,78.5,720.7,78.0M729.1,63.9L732.5,67.3L731.8,68.0L728.2,64.4C727.8,64.0,727.4,63.9,726.9,63.9C726.5,63.9,726.2,64.1,725.9,64.4C725.4,64.8,725.2,65.4,725.3,66.2C725.3,66.9,725.7,67.6,726.3,68.2L728.9,70.8L728.2,71.6L724.6,68.0C724.3,67.6,723.9,67.5,723.4,67.5C722.9,67.5,722.6,67.6,722.3,67.9C721.8,68.4,721.7,69.0,721.7,69.7C721.7,70.5,722.1,71.2,722.7,71.8L725.3,74.4L724.6,75.1L719.3,69.8L720.0,69.2L720.9,70.0C720.7,69.5,720.8,69.0,721.0,68.4C721.1,68.0,721.4,67.6,721.7,67.2C722.2,66.7,722.8,66.5,723.4,66.4C723.9,66.4,724.2,66.4,724.5,66.6C724.4,66.2,724.4,65.8,724.4,65.4C724.5,64.7,724.8,64.1,725.3,63.7C725.8,63.1,726.4,62.8,727.1,62.9C727.8,62.9,728.5,63.2,729.1,63.9" stroke-opacity="0.50"/><path fill="#a0a0a4" fill-opacity="0.50" d="M661.3,336.5L653.5,328.7L654.5,327.7L663.9,331.1L660.6,321.6L661.6,320.6L669.4,328.4L668.6,329.1L661.9,322.4L665.5,332.3L665.1,332.6L655.2,329.1L662.0,335.8L661.3,336.5M665.3,316.9L666.1,316.2L676.7,321.1L675.8,322.0L672.2,320.2L669.3,323.2L670.9,326.8L670.1,327.7L665.3,316.9M671.3,319.8L666.6,317.5L668.8,322.3L671.3,319.8M669.7,312.5L674.5,307.7L675.2,308.4L671.1,312.4L673.8,315.1L677.7,311.2L678.4,311.9L674.5,315.8L677.5,318.9L681.6,314.8L682.3,315.5L677.4,320.3L669.7,312.5M675.2,307.0L681.2,301.0L681.9,301.7L679.3,304.3L686.4,311.4L685.6,312.2L678.5,305.1L675.9,307.7L675.2,307.0M681.9,300.3L686.8,295.5L687.4,296.1L683.4,300.2L686.1,302.9L690.0,299.0L690.7,299.7L686.8,303.6L689.8,306.6L693.9,302.5L694.6,303.2L689.7,308.1L681.9,300.3M695.5,302.3L687.7,294.5L688.4,293.8L699.8,295.6L693.2,289.0L693.9,288.3L701.7,296.1L701.0,296.8L689.6,295.0L696.2,301.6L695.5,302.3M706.2,291.9C705.3,292.8,704.1,293.2,702.8,293.2C701.3,293.1,699.9,292.5,698.7,291.3C697.6,290.2,696.9,288.9,696.8,287.4C696.8,286.0,697.2,284.8,698.1,283.9C699.1,282.9,700.2,282.5,701.6,282.5C703.1,282.6,704.4,283.3,705.6,284.4C706.8,285.7,707.4,287.0,707.4,288.5C707.5,289.9,707.0,291.0,706.2,291.9M705.4,291.2C706.1,290.4,706.4,289.5,706.3,288.4C706.2,287.2,705.7,286.2,704.8,285.3C704.3,284.8,703.8,284.4,703.3,284.2C702.8,283.9,702.2,283.8,701.7,283.7C700.5,283.5,699.6,283.8,698.9,284.6C698.1,285.3,697.8,286.3,698.0,287.4C698.1,288.5,698.6,289.6,699.6,290.5C700.5,291.5,701.6,292.0,702.7,292.1C703.8,292.2,704.7,291.9,705.4,291.2M711.3,286.5C711.1,286.7,710.9,286.8,710.7,286.7C710.5,286.7,710.2,286.6,710.0,286.4C709.8,286.2,709.7,286.0,709.7,285.7C709.7,285.5,709.8,285.3,709.9,285.1C710.1,285.0,710.2,284.9,710.5,284.9C710.7,284.9,710.9,285.0,711.2,285.3C711.4,285.5,711.5,285.7,711.5,285.9C711.5,286.2,711.5,286.4,711.3,286.5M713.2,274.9L714.1,275.8C713.4,275.8,712.8,276.0,712.2,276.2C712.1,276.3,711.9,276.4,711.8,276.5C711.7,276.6,711.5,276.7,711.4,276.8C710.9,277.3,710.6,278.0,710.7,278.8C710.8,279.5,711.1,280.2,711.7,280.8C712.3,281.4,713.0,281.7,713.7,281.8C714.5,281.8,715.2,281.5,715.7,281.0C716.1,280.7,716.3,280.3,716.4,279.8C716.6,279.4,716.6,278.9,716.6,278.3L717.6,279.2C717.4,279.8,717.3,280.3,717.1,280.7C716.9,281.0,716.6,281.4,716.4,281.7C715.6,282.4,714.7,282.8,713.7,282.8C712.6,282.7,711.7,282.3,710.9,281.6C710.2,280.8,709.8,279.9,709.7,278.8C709.7,277.8,710.1,276.9,710.8,276.1C711.2,275.7,711.6,275.4,712.1,275.2C712.4,275.1,712.7,275.0,713.2,274.9M721.5,276.6C720.8,277.2,719.9,277.6,718.9,277.6C717.9,277.6,716.9,277.2,716.1,276.4C715.3,275.6,714.9,274.7,714.8,273.7C714.8,272.7,715.1,271.8,715.9,271.1C716.6,270.4,717.4,270.0,718.5,270.1C719.5,270.1,720.4,270.5,721.2,271.3C722.0,272.1,722.4,273.0,722.4,274.1C722.4,275.1,722.1,275.9,721.5,276.6M720.7,276.0C721.2,275.5,721.4,274.9,721.4,274.1C721.4,273.4,721.0,272.7,720.4,272.1C719.8,271.4,719.1,271.1,718.3,271.1C717.5,271.0,717.0,271.3,716.5,271.7C716.0,272.2,715.8,272.8,715.9,273.5C715.9,274.3,716.2,275.0,716.9,275.6C717.5,276.2,718.2,276.6,718.9,276.6C719.7,276.7,720.3,276.5,720.7,276.0M729.1,261.9L732.5,265.3L731.8,266.0L728.2,262.4C727.8,262.0,727.4,261.9,726.9,261.9C726.5,261.9,726.2,262.1,725.9,262.4C725.4,262.8,725.2,263.4,725.3,264.2C725.3,264.9,725.7,265.6,726.3,266.2L728.9,268.8L728.2,269.6L724.6,266.0C724.3,265.6,723.9,265.5,723.4,265.5C722.9,265.5,722.6,265.6,722.3,265.9C721.8,266.4,721.7,267.0,721.7,267.7C721.7,268.5,722.1,269.2,722.7,269.8L725.3,272.4L724.6,273.1L719.3,267.8L720.0,267.2L720.9,268.0C720.7,267.5,720.8,267.0,721.0,266.4C721.1,266.0,721.4,265.6,721.7,265.2C722.2,264.7,722.8,264.5,723.4,264.4C723.9,264.4,724.2,264.4,724.5,264.6C724.4,264.2,724.4,263.8,724.4,263.4C724.5,262.7,724.8,262.1,725.3,261.7C725.8,261.1,726.4,260.8,727.1,260.9C727.8,260.9,728.5,261.2,729.1,261.9" stroke-opacity="0.50"/><path fill="#a0a0a4" fill-opacity="0.50" d="M661.3,534.5L653.5,526.7L654.5,525.7L663.9,529.1L660.6,519.6L661.6,518.6L669.4,526.4L668.6,527.1L661.9,520.4L665.5,530.3L665.1,530.6L655.2,527.1L662.0,533.8L661.3,534.5M665.3,514.9L666.1,514.2L676.7,519.1L675.8,520.0L672.2,518.2L669.3,521.2L670.9,524.8L670.1,525.7L665.3,514.9M671.3,517.8L666.6,515.5L668.8,520.3L671.3,517.8M669.7,510.5L674.5,505.7L675.2,506.4L671.1,510.4L673.8,513.1L677.7,509.2L678.4,509.9L674.5,513.8L677.5,516.9L681.6,512.8L682.3,513.5L677.4,518.3L669.7,510.5M675.2,505.0L681.2,499.0L681.9,499.7L679.3,502.3L686.4,509.4L685.6,510.2L678.5,503.1L675.9,505.7L675.2,505.0M681.9,498.3L686.8,493.5L687.4,494.1L683.4,498.2L686.1,500.9L690.0,497.0L690.7,497.7L686.8,501.6L689.8,504.6L693.9,500.5L694.6,501.2L689.7,506.1L681.9,498.3M695.5,500.3L687.7,492.5L688.4,491.8L699.8,493.6L693.2,487.0L693.9,486.3L701.7,494.1L701.0,494.8L689.6,493.0L696.2,499.6L695.5,500.3M706.2,489.9C705.3,490.8,704.1,491.2,702.8,491.2C701.3,491.1,699.9,490.5,698.7,489.3C697.6,488.2,696.9,486.9,696.8,485.4C696.8,484.0,697.2,482.8,698.1,481.9C699.1,480.9,700.2,480.5,701.6,480.5C703.1,480.6,704.4,481.3,705.6,482.4C706.8,483.7,707.4,485.0,707.4,486.5C707.5,487.9,707.0,489.0,706.2,489.9M705.4,489.2C706.1,488.4,706.4,487.5,706.3,486.4C706.2,485.2,705.7,484.2,704.8,483.3C704.3,482.8,703.8,482.4,703.3,482.2C702.8,481.9,702.2,481.8,701.7,481.7C700.5,481.5,699.6,481.8,698.9,482.6C698.1,483.3,697.8,484.3,698.0,485.4C698.1,486.5,698.6,487.6,699.6,488.5C700.5,489.5,701.6,490.0,702.7,490.1C703.8,490.2,704.7,489.9,705.4,489.2M711.3,484.5C711.1,484.7,710.9,484.8,710.7,484.7C710.5,484.7,710.2,484.6,710.0,484.4C709.8,484.2,709.7,484.0,709.7,483.7C709.7,483.5,709.8,483.3,709.9,483.1C710.1,483.0,710.2,482.9,710.5,482.9C710.7,482.9,710.9,483.0,711.2,483.3C711.4,483.5,711.5,483.7,711.5,483.9C711.5,484.2,711.5,484.4,711.3,484.5M713.2,472.9L714.1,473.8C713.4,473.8,712.8,474.0,712.2,474.2C712.1,474.3,711.9,474.4,711.8,474.5C711.7,474.6,711.5,474.7,711.4,474.8C710.9,475.3,710.6,476.0,710.7,476.8C710.8,477.5,711.1,478.2,711.7,478.8C712.3,479.4,713.0,479.7,713.7,479.8C714.5,479.8,715.2,479.5,715.7,479.0C716.1,478.7,716.3,478.3,716.4,477.8C716.6,477.4,716.6,476.9,716.6,476.3L717.6,477.2C717.4,477.8,717.3,478.3,717.1,478.7C716.9,479.0,716.6,479.4,716.4,479.7C715.6,480.4,714.7,480.8,713.7,480.8C712.6,480.7,711.7,480.3,710.9,479.6C710.2,478.8,709.8,477.9,709.7,476.8C709.7,475.8,710.1,474.9,710.8,474.1C711.2,473.7,711.6,473.4,712.1,473.2C712.4,473.1,712.7,473.0,713.2,472.9M721.5,474.6C720.8,475.2,719.9,475.6,718.9,475.6C717.9,475.6,716.9,475.2,716.1,474.4C715.3,473.6,714.9,472.7,714.8,471.7C714.8,470.7,715.1,469.8,715.9,469.1C716.6,468.4,717.4,468.0,718.5,468.1C719.5,468.1,720.4,468.5,721.2,469.3C722.0,470.1,722.4,471.0,722.4,472.1C722.4,473.1,722.1,473.9,721.5,474.6M720.7,474.0C721.2,473.5,721.4,472.9,721.4,472.1C721.4,471.4,721.0,470.7,720.4,470.1C719.8,469.4,719.1,469.1,718.3,469.1C717.5,469.0,717.0,469.3,716.5,469.7C716.0,470.2,715.8,470.8,715.9,471.5C715.9,472.3,716.2,473.0,716.9,473.6C717.5,474.2,718.2,474.6,718.9,474.6C719.7,474.7,720.3,474.5,720.7,474.0M729.1,459.9L732.5,463.3L731.8,464.0L728.2,460.4C727.8,460.0,727.4,459.9,726.9,459.9C726.5,459.9,726.2,460.1,725.9,460.4C725.4,460.8,725.2,461.4,725.3,462.2C725.3,462.9,725.7,463.6,726.3,464.2L728.9,466.8L728.2,467.6L724.6,464.0C724.3,463.6,723.9,463.5,723.4,463.5C722.9,463.5,722.6,463.6,722.3,463.9C721.8,464.4,721.7,465.0,721.7,465.7C721.7,466.5,722.1,467.2,722.7,467.8L725.3,470.4L724.6,471.1L719.3,465.8L720.0,465.2L720.9,466.0C720.7,465.5,720.8,465.0,721.0,464.4C721.1,464.0,721.4,463.6,721.7,463.2C722.2,462.7,722.8,462.5,723.4,462.4C723.9,462.4,724.2,462.4,724.5,462.6C724.4,462.2,724.4,461.8,724.4,461.4C724.5,460.7,724.8,460.1,725.3,459.7C725.8,459.1,726.4,458.8,727.1,458.9C727.8,458.9,728.5,459.2,729.1,459.9" stroke-opacity="0.50"/><path fill="#a0a0a4" fill-opacity="0.50" d="M661.3,732.5L653.5,724.7L654.5,723.7L663.9,727.1L660.6,717.6L661.6,716.6L669.4,724.4L668.6,725.1L661.9,718.4L665.5,728.3L665.1,728.6L655.2,725.1L662.0,731.8L661.3,732.5M665.3,712.9L666.1,712.2L676.7,717.1L675.8,718.0L672.2,716.2L669.3,719.2L670.9,722.8L670.1,723.7L665.3,712.9M671.3,715.8L666.6,713.5L668.8,718.3L671.3,715.8M669.7,708.5L674.5,703.7L675.2,704.4L671.1,708.4L673.8,711.1L677.7,707.2L678.4,707.9L674.5,711.8L677.5,714.9L681.6,710.8L682.3,711.5L677.4,716.3L669.7,708.5M675.2,703.0L681.2,697.0L681.9,697.7L679.3,700.3L686.4,707.4L685.6,708.2L678.5,701.1L675.9,703.7L675.2,703.0M681.9,696.3L686.8,691.5L687.4,692.1L683.4,696.2L686.1,698.9L690.0,695.0L690.7,695.7L686.8,699.6L689.8,702.6L693.9,698.5L694.6,699.2L689.7,704.1L681.9,696.3M695.5,698.3L687.7,690.5L688.4,689.8L699.8,691.6L693.2,685.0L693.9,684.3L701.7,692.1L701.0,692.8L689.6,691.0L696.2,697.6L695.5,698.3M706.2,687.9C705.3,688.8,704.1,689.2,702.8,689.2C701.3,689.1,699.9,688.5,698.7,687.3C697.6,686.2,696.9,684.9,696.8,683.4C696.8,682.0,697.2,680.8,698.1,679.9C699.1,678.9,700.2,678.5,701.6,678.5C703.1,678.6,704.4,679.3,705.6,680.4C706.8,681.7,707.4,683.0,707.4,684.5C707.5,685.9,707.0,687.0,706.2,687.9M705.4,687.2C706.1,686.4,706.4,685.5,706.3,684.4C706.2,683.2,705.7,682.2,704.8,681.3C704.3,680.8,703.8,680.4,703.3,680.2C702.8,679.9,702.2,679.8,701.7,679.7C700.5,679.5,699.6,679.8,698.9,680.6C698.1,681.3,697.8,682.3,698.0,683.4C698.1,684.5,698.6,685.6,699.6,686.5C700.5,687.5,701.6,688.0,702.7,688.1C703.8,688.2,704.7,687.9,705.4,687.2M711.3,682.5C711.1,682.7,710.9,682.8,710.7,682.7C710.5,682.7,710.2,682.6,710.0,682.4C709.8,682.2,709.7,682.0,709.7,681.7C709.7,681.5,709.8,681.3,709.9,681.1C710.1,681.0,710.2,680.9,710.5,680.9C710.7,680.9,710.9,681.0,711.2,681.3C711.4,681.5,711.5,681.7,711.5,681.9C711.5,682.2,711.5,682.4,711.3,682.5M713.2,670.9L714.1,671.8C713.4,671.8,712.8,672.0,712.2,672.2C712.1,672.3,711.9,672.4,711.8,672.5C711.7,672.6,711.5,672.7,711.4,672.8C710.9,673.3,710.6,674.0,710.7,674.8C710.8,675.5,711.1,676.2,711.7,676.8C712.3,677.4,713.0,677.7,713.7,677.8C714.5,677.8,715.2,677.5,715.7,677.0C716.1,676.7,716.3,676.3,716.4,675.8C716.6,675.4,716.6,674.9,716.6,674.3L717.6,675.2C717.4,675.8,717.3,676.3,717.1,676.7C716.9,677.0,716.6,677.4,716.4,677.7C715.6,678.4,714.7,678.8,713.7,678.8C712.6,678.7,711.7,678.3,710.9,677.6C710.2,676.8,709.8,675.9,709.7,674.8C709.7,673.8,710.1,672.9,710.8,672.1C711.2,671.7,711.6,671.4,712.1,671.2C712.4,671.1,712.7,671.0,713.2,670.9M721.5,672.6C720.8,673.2,719.9,673.6,718.9,673.6C717.9,673.6,716.9,673.2,716.1,672.4C715.3,671.6,714.9,670.7,714.8,669.7C714.8,668.7,715.1,667.8,715.9,667.1C716.6,666.4,717.4,666.0,718.5,666.1C719.5,666.1,720.4,666.5,721.2,667.3C722.0,668.1,722.4,669.0,722.4,670.1C722.4,671.1,722.1,671.9,721.5,672.6M720.7,672.0C721.2,671.5,721.4,670.9,721.4,670.1C721.4,669.4,721.0,668.7,720.4,668.1C719.8,667.4,719.1,667.1,718.3,667.1C717.5,667.0,717.0,667.3,716.5,667.7C716.0,668.2,715.8,668.8,715.9,669.5C715.9,670.3,716.2,671.0,716.9,671.6C717.5,672.2,718.2,672.6,718.9,672.6C719.7,672.7,720.3,672.5,720.7,672.0M729.1,657.9L732.5,661.3L731.8,662.0L728.2,658.4C727.8,658.0,727.4,657.9,726.9,657.9C726.5,657.9,726.2,658.1,725.9,658.4C725.4,658.8,725.2,659.4,725.3,660.2C725.3,660.9,725.7,661.6,726.3,662.2L728.9,664.8L728.2,665.6L724.6,662.0C724.3,661.6,723.9,661.5,723.4,661.5C722.9,661.5,722.6,661.6,722.3,661.9C721.8,662.4,721.7,663.0,721.7,663.7C721.7,664.5,722.1,665.2,722.7,665.8L725.3,668.4L724.6,669.1L719.3,663.8L720.0,663.2L720.9,664.0C720.7,663.5,720.8,663.0,721.0,662.4C721.1,662.0,721.4,661.6,721.7,661.2C722.2,660.7,722.8,660.5,723.4,660.4C723.9,660.4,724.2,660.4,724.5,660.6C724.4,660.2,724.4,659.8,724.4,659.4C724.5,658.7,724.8,658.1,725.3,657.7C725.8,657.1,726.4,656.8,727.1,656.9C727.8,656.9,728.5,657.2,729.1,657.9" stroke-opacity="0.50"/><path fill="#a0a0a4" fill-opacity="0.50" d="M859.3,138.5L851.5,130.7L852.5,129.7L861.9,133.1L858.6,123.6L859.6,122.6L867.4,130.4L866.6,131.1L859.9,124.4L863.5,134.3L863.1,134.6L853.2,131.1L860.0,137.8L859.3,138.5M863.3,118.9L864.1,118.2L874.7,123.1L873.8,124.0L870.2,122.2L867.3,125.2L868.9,128.8L868.1,129.7L863.3,118.9M869.3,121.8L864.6,119.5L866.8,124.3L869.3,121.8M867.7,114.5L872.5,109.7L873.2,110.4L869.1,114.4L871.8,117.1L875.7,113.2L876.4,113.9L872.5,117.8L875.5,120.9L879.6,116.8L880.3,117.5L875.4,122.3L867.7,114.5M873.2,109.0L879.2,103.0L879.9,103.7L877.3,106.3L884.4,113.4L883.6,114.2L876.5,107.1L873.9,109.7L873.2,109.0M879.9,102.3L884.8,97.5L885.4,98.1L881.4,102.2L884.1,104.9L888.0,101.0L888.7,101.7L884.8,105.6L887.8,108.6L891.9,104.5L892.6,105.2L887.7,110.1L879.9,102.3M893.5,104.3L885.7,96.5L886.4,95.8L897.8,97.6L891.2,91.0L891.9,90.3L899.7,98.1L899.0,98.8L887.6,97.0L894.2,103.6L893.5,104.3M904.2,93.9C903.3,94.8,902.1,95.2,900.8,95.2C899.3,95.1,897.9,94.5,896.7,93.3C895.6,92.2,894.9,90.9,894.8,89.4C894.8,88.0,895.2,86.8,896.1,85.9C897.1,84.9,898.2,84.5,899.6,84.5C901.1,84.6,902.4,85.3,903.6,86.4C904.8,87.7,905.4,89.0,905.4,90.5C905.5,91.9,905.0,93.0,904.2,93.9M903.4,93.2C904.1,92.4,904.4,91.5,904.3,90.4C904.2,89.2,903.7,88.2,902.8,87.3C902.3,86.8,901.8,86.4,901.3,86.2C900.8,85.9,900.2,85.8,899.7,85.7C898.5,85.5,897.6,85.8,896.9,86.6C896.1,87.3,895.8,88.3,896.0,89.4C896.1,90.5,896.6,91.6,897.6,92.5C898.5,93.5,899.6,94.0,900.7,94.1C901.8,94.2,902.7,93.9,903.4,93.2M909.3,88.5C909.1,88.7,908.9,88.8,908.7,88.7C908.5,88.7,908.2,88.6,908.0,88.4C907.8,88.2,907.7,88.0,907.7,87.7C907.7,87.5,907.8,87.3,907.9,87.1C908.1,87.0,908.2,86.9,908.5,86.9C908.7,86.9,908.9,87.0,909.2,87.3C909.4,87.5,909.5,87.7,909.5,87.9C909.5,88.2,909.5,88.4,909.3,88.5M911.2,76.9L912.1,77.8C911.4,77.8,910.8,78.0,910.2,78.2C910.1,78.3,909.9,78.4,909.8,78.5C909.7,78.6,909.5,78.7,909.4,78.8C908.9,79.3,908.6,80.0,908.7,80.8C908.8,81.5,909.1,82.2,909.7,82.8C910.3,83.4,911.0,83.7,911.7,83.8C912.5,83.8,913.2,83.5,913.7,83.0C914.1,82.7,914.3,82.3,914.4,81.8C914.6,81.4,914.6,80.9,914.6,80.3L915.6,81.2C915.4,81.8,915.3,82.3,915.1,82.7C914.9,83.0,914.6,83.4,914.4,83.7C913.6,84.4,912.7,84.8,911.7,84.8C910.6,84.7,909.7,84.3,908.9,83.6C908.2,82.8,907.8,81.9,907.7,80.8C907.7,79.8,908.1,78.9,908.8,78.1C909.2,77.7,909.6,77.4,910.1,77.2C910.4,77.1,910.7,77.0,911.2,76.9M919.5,78.6C918.8,79.2,917.9,79.6,916.9,79.6C915.9,79.6,914.9,79.2,914.1,78.4C913.3,77.6,912.9,76.7,912.8,75.7C912.8,74.7,913.1,73.8,913.9,73.1C914.6,72.4,915.4,72.0,916.5,72.1C917.5,72.1,918.4,72.5,919.2,73.3C920.0,74.1,920.4,75.0,920.4,76.1C920.4,77.1,920.1,77.9,919.5,78.6M918.7,78.0C919.2,77.5,919.4,76.9,919.4,76.1C919.4,75.4,919.0,74.7,918.4,74.1C917.8,73.4,917.1,73.1,916.3,73.1C915.5,73.0,915.0,73.3,914.5,73.7C914.0,74.2,913.8,74.8,913.9,75.5C913.9,76.3,914.2,77.0,914.9,77.6C915.5,78.2,916.2,78.6,916.9,78.6C917.7,78.7,918.3,78.5,918.7,78.0M927.1,63.9L930.5,67.3L929.8,68.0L926.2,64.4C925.8,64.0,925.4,63.9,924.9,63.9C924.5,63.9,924.2,64.1,923.9,64.4C923.4,64.8,923.2,65.4,923.3,66.2C923.3,66.9,923.7,67.6,924.3,68.2L926.9,70.8L926.2,71.6L922.6,68.0C922.3,67.6,921.9,67.5,921.4,67.5C920.9,67.5,920.6,67.6,920.3,67.9C919.8,68.4,919.7,69.0,919.7,69.7C919.7,70.5,920.1,71.2,920.7,71.8L923.3,74.4L922.6,75.1L917.3,69.8L918.0,69.2L918.9,70.0C918.7,69.5,918.8,69.0,919.0,68.4C919.1,68.0,919.4,67.6,919.7,67.2C920.2,66.7,920.8,66.5,921.4,66.4C921.9,66.4,922.2,66.4,922.5,66.6C922.4,66.2,922.4,65.8,922.4,65.4C922.5,64.7,922.8,64.1,923.3,63.7C923.8,63.1,924.4,62.8,925.1,62.9C925.8,62.9,926.5,63.2,927.1,63.9" stroke-opacity="0.50"/><path fill="#a0a0a4" fill-opacity="0.50" d="M859.3,336.5L851.5,328.7L852.5,327.7L861.9,331.1L858.6,321.6L859.6,320.6L867.4,328.4L866.6,329.1L859.9,322.4L863.5,332.3L863.1,332.6L853.2,329.1L860.0,335.8L859.3,336.5M863.3,316.9L864.1,316.2L874.7,321.1L873.8,322.0L870.2,320.2L867.3,323.2L868.9,326.8L868.1,327.7L863.3,316.9M869.3,319.8L864.6,317.5L866.8,322.3L869.3,319.8M867.7,312.5L872.5,307.7L873.2,308.4L869.1,312.4L871.8,315.1L875.7,311.2L876.4,311.9L872.5,315.8L875.5,318.9L879.6,314.8L880.3,315.5L875.4,320.3L867.7,312.5M873.2,307.0L879.2,301.0L879.9,301.7L877.3,304.3L884.4,311.4L883.6,312.2L876.5,305.1L873.9,307.7L873.2,307.0M879.9,300.3L884.8,295.5L885.4,296.1L881.4,300.2L884.1,302.9L888.0,299.0L888.7,299.7L884.8,303.6L887.8,306.6L891.9,302.5L892.6,303.2L887.7,308.1L879.9,300.3M893.5,302.3L885.7,294.5L886.4,293.8L897.8,295.6L891.2,289.0L891.9,288.3L899.7,296.1L899.0,296.8L887.6,295.0L894.2,301.6L893.5,302.3M904.2,291.9C903.3,292.8,902.1,293.2,900.8,293.2C899.3,293.1,897.9,292.5,896.7,291.3C895.6,290.2,894.9,288.9,894.8,287.4C894.8,286.0,895.2,284.8,896.1,283.9C897.1,282.9,898.2,282.5,899.6,282.5C901.1,282.6,902.4,283.3,903.6,284.4C904.8,285.7,905.4,287.0,905.4,288.5C905.5,289.9,905.0,291.0,904.2,291.9M903.4,291.2C904.1,290.4,904.4,289.5,904.3,288.4C904.2,287.2,903.7,286.2,902.8,285.3C902.3,284.8,901.8,284.4,901.3,284.2C900.8,283.9,900.2,283.8,899.7,283.7C898.5,283.5,897.6,283.8,896.9,284.6C896.1,285.3,895.8,286.3,896.0,287.4C896.1,288.5,896.6,289.6,897.6,290.5C898.5,291.5,899.6,292.0,900.7,292.1C901.8,292.2,902.7,291.9,903.4,291.2M909.3,286.5C909.1,286.7,908.9,286.8,908.7,286.7C908.5,286.7,908.2,286.6,908.0,286.4C907.8,286.2,907.7,286.0,907.7,285.7C907.7,285.5,907.8,285.3,907.9,285.1C908.1,285.0,908.2,284.9,908.5,284.9C908.7,284.9,908.9,285.0,909.2,285.3C909.4,285.5,909.5,285.7,909.5,285.9C909.5,286.2,909.5,286.4,909.3,286.5M911.2,274.9L912.1,275.8C911.4,275.8,910.8,276.0,910.2,276.2C910.1,276.3,909.9,276.4,909.8,276.5C909.7,276.6,909.5,276.7,909.4,276.8C908.9,277.3,908.6,278.0,908.7,278.8C908.8,279.5,909.1,280.2,909.7,280.8C910.3,281.4,911.0,281.7,911.7,281.8C912.5,281.8,913.2,281.5,913.7,281.0C914.1,280.7,914.3,280.3,914.4,279.8C914.6,279.4,914.6,278.9,914.6,278.3L915.6,279.2C915.4,279.8,915.3,280.3,915.1,280.7C914.9,281.0,914.6,281.4,914.4,281.7C913.6,282.4,912.7,282.8,911.7,282.8C910.6,282.7,909.7,282.3,908.9,281.6C908.2,280.8,907.8,279.9,907.7,278.8C907.7,277.8,908.1,276.9,908.8,276.1C909.2,275.7,909.6,275.4,910.1,275.2C910.4,275.1,910.7,275.0,911.2,274.9M919.5,276.6C918.8,277.2,917.9,277.6,916.9,277.6C915.9,277.6,914.9,277.2,914.1,276.4C913.3,275.6,912.9,274.7,912.8,273.7C912.8,272.7,913.1,271.8,913.9,271.1C914.6,270.4,915.4,270.0,916.5,270.1C917.5,270.1,918.4,270.5,919.2,271.3C920.0,272.1,920.4,273.0,920.4,274.1C920.4,275.1,920.1,275.9,919.5,276.6M918.7,276.0C919.2,275.5,919.4,274.9,919.4,274.1C919.4,273.4,919.0,272.7,918.4,272.1C917.8,271.4,917.1,271.1,916.3,271.1C915.5,271.0,915.0,271.3,914.5,271.7C914.0,272.2,913.8,272.8,913.9,273.5C913.9,274.3,914.2,275.0,914.9,275.6C915.5,276.2,916.2,276.6,916.9,276.6C917.7,276.7,918.3,276.5,918.7,276.0M927.1,261.9L930.5,265.3L929.8,266.0L926.2,262.4C925.8,262.0,925.4,261.9,924.9,261.9C924.5,261.9,924.2,262.1,923.9,262.4C923.4,262.8,923.2,263.4,923.3,264.2C923.3,264.9,923.7,265.6,924.3,266.2L926.9,268.8L926.2,269.6L922.6,266.0C922.3,265.6,921.9,265.5,921.4,265.5C920.9,265.5,920.6,265.6,920.3,265.9C919.8,266.4,919.7,267.0,919.7,267.7C919.7,268.5,920.1,269.2,920.7,269.8L923.3,272.4L922.6,273.1L917.3,267.8L918.0,267.2L918.9,268.0C918.7,267.5,918.8,267.0,919.0,266.4C919.1,266.0,919.4,265.6,919.7,265.2C920.2,264.7,920.8,264.5,921.4,264.4C921.9,264.4,922.2,264.4,922.5,264.6C922.4,264.2,922.4,263.8,922.4,263.4C922.5,262.7,922.8,262.1,923.3,261.7C923.8,261.1,924.4,260.8,925.1,260.9C925.8,260.9,926.5,261.2,927.1,261.9" stroke-opacity="0.50"/><path fill="#a0a0a4" fill-opacity="0.50" d="M859.3,534.5L851.5,526.7L852.5,525.7L861.9,529.1L858.6,519.6L859.6,518.6L867.4,526.4L866.6,527.1L859.9,520.4L863.5,530.3L863.1,530.6L853.2,527.1L860.0,533.8L859.3,534.5M863.3,514.9L864.1,514.2L874.7,519.1L873.8,520.0L870.2,518.2L867.3,521.2L868.9,524.8L868.1,525.7L863.3,514.9M869.3,517.8L864.6,515.5L866.8,520.3L869.3,517.8M867.7,510.5L872.5,505.7L873.2,506.4L869.1,510.4L871.8,513.1L875.7,509.2L876.4,509.9L872.5,513.8L875.5,516.9L879.6,512.8L880.3,513.5L875.4,518.3L867.7,510.5M873.2,505.0L879.2,499.0L879.9,499.7L877.3,502.3L884.4,509.4L883.6,510.2L876.5,503.1L873.9,505.7L873.2,505.0M879.9,498.3L884.8,493.5L885.4,494.1L881.4,498.2L884.1,500.9L888.0,497.0L888.7,497.7L884.8,501.6L887.8,504.6L891.9,500.5L892.6,501.2L887.7,506.1L879.9,498.3M893.5,500.3L885.7,492.5L886.4,491.8L897.8,493.6L891.2,487.0L891.9,486.3L899.7,494.1L899.0,494.8L887.6,493.0L894.2,499.6L893.5,500.3M904.2,489.9C903.3,490.8,902.1,491.2,900.8,491.2C899.3,491.1,897.9,490.5,896.7,489.3C895.6,488.2,894.9,486.9,894.8,485.4C894.8,484.0,895.2,482.8,896.1,481.9C897.1,480.9,898.2,480.5,899.6,480.5C901.1,480.6,902.4,481.3,903.6,482.4C904.8,483.7,905.4,485.0,905.4,486.5C905.5,487.9,905.0,489.0,904.2,489.9M903.4,489.2C904.1,488.4,904.4,487.5,904.3,486.4C904.2,485.2,903.7,484.2,902.8,483.3C902.3,482.8,901.8,482.4,901.3,482.2C900.8,481.9,900.2,481.8,899.7,481.7C898.5,481.5,897.6,481.8,896.9,482.6C896.1,483.3,895.8,484.3,896.0,485.4C896.1,486.5,896.6,487.6,897.6,488.5C898.5,489.5,899.6,490.0,900.7,490.1C901.8,490.2,902.7,489.9,903.4,489.2M909.3,484.5C909.1,484.7,908.9,484.8,908.7,484.7C908.5,484.7,908.2,484.6,908.0,484.4C907.8,484.2,907.7,484.0,907.7,483.7C907.7,483.5,907.8,483.3,907.9,483.1C908.1,483.0,908.2,482.9,908.5,482.9C908.7,482.9,908.9,483.0,909.2,483.3C909.4,483.5,909.5,483.7,909.5,483.9C909.5,484.2,909.5,484.4,909.3,484.5M911.2,472.9L912.1,473.8C911.4,473.8,910.8,474.0,910.2,474.2C910.1,474.3,909.9,474.4,909.8,474.5C909.7,474.6,909.5,474.7,909.4,474.8C908.9,475.3,908.6,476.0,908.7,476.8C908.8,477.5,909.1,478.2,909.7,478.8C910.3,479.4,911.0,479.7,911.7,479.8C912.5,479.8,913.2,479.5,913.7,479.0C914.1,478.7,914.3,478.3,914.4,477.8C914.6,477.4,914.6,476.9,914.6,476.3L915.6,477.2C915.4,477.8,915.3,478.3,915.1,478.7C914.9,479.0,914.6,479.4,914.4,479.7C913.6,480.4,912.7,480.8,911.7,480.8C910.6,480.7,909.7,480.3,908.9,479.6C908.2,478.8,907.8,477.9,907.7,476.8C907.7,475.8,908.1,474.9,908.8,474.1C909.2,473.7,909.6,473.4,910.1,473.2C910.4,473.1,910.7,473.0,911.2,472.9M919.5,474.6C918.8,475.2,917.9,475.6,916.9,475.6C915.9,475.6,914.9,475.2,914.1,474.4C913.3,473.6,912.9,472.7,912.8,471.7C912.8,470.7,913.1,469.8,913.9,469.1C914.6,468.4,915.4,468.0,916.5,468.1C917.5,468.1,918.4,468.5,919.2,469.3C920.0,470.1,920.4,471.0,920.4,472.1C920.4,473.1,920.1,473.9,919.5,474.6M918.7,474.0C919.2,473.5,919.4,472.9,919.4,472.1C919.4,471.4,919.0,470.7,918.4,470.1C917.8,469.4,917.1,469.1,916.3,469.1C915.5,469.0,915.0,469.3,914.5,469.7C914.0,470.2,913.8,470.8,913.9,471.5C913.9,472.3,914.2,473.0,914.9,473.6C915.5,474.2,916.2,474.6,916.9,474.6C917.7,474.7,918.3,474.5,918.7,474.0M927.1,459.9L930.5,463.3L929.8,464.0L926.2,460.4C925.8,460.0,925.4,459.9,924.9,459.9C924.5,459.9,924.2,460.1,923.9,460.4C923.4,460.8,923.2,461.4,923.3,462.2C923.3,462.9,923.7,463.6,924.3,464.2L926.9,466.8L926.2,467.6L922.6,464.0C922.3,463.6,921.9,463.5,921.4,463.5C920.9,463.5,920.6,463.6,920.3,463.9C919.8,464.4,919.7,465.0,919.7,465.7C919.7,466.5,920.1,467.2,920.7,467.8L923.3,470.4L922.6,471.1L917.3,465.8L918.0,465.2L918.9,466.0C918.7,465.5,918.8,465.0,919.0,464.4C919.1,464.0,919.4,463.6,919.7,463.2C920.2,462.7,920.8,462.5,921.4,462.4C921.9,462.4,922.2,462.4,922.5,462.6C922.4,462.2,922.4,461.8,922.4,461.4C922.5,460.7,922.8,460.1,923.3,459.7C923.8,459.1,924.4,458.8,925.1,458.9C925.8,458.9,926.5,459.2,927.1,459.9" stroke-opacity="0.50"/><path fill="#a0a0a4" fill-opacity="0.50" d="M859.3,732.5L851.5,724.7L852.5,723.7L861.9,727.1L858.6,717.6L859.6,716.6L867.4,724.4L866.6,725.1L859.9,718.4L863.5,728.3L863.1,728.6L853.2,725.1L860.0,731.8L859.3,732.5M863.3,712.9L864.1,712.2L874.7,717.1L873.8,718.0L870.2,716.2L867.3,719.2L868.9,722.8L868.1,723.7L863.3,712.9M869.3,715.8L864.6,713.5L866.8,718.3L869.3,715.8M867.7,708.5L872.5,703.7L873.2,704.4L869.1,708.4L871.8,711.1L875.7,707.2L876.4,707.9L872.5,711.8L875.5,714.9L879.6,710.8L880.3,711.5L875.4,716.3L867.7,708.5M873.2,703.0L879.2,697.0L879.9,697.7L877.3,700.3L884.4,707.4L883.6,708.2L876.5,701.1L873.9,703.7L873.2,703.0M879.9,696.3L884.8,691.5L885.4,692.1L881.4,696.2L884.1,698.9L888.0,695.0L888.7,695.7L884.8,699.6L887.8,702.6L891.9,698.5L892.6,699.2L887.7,704.1L879.9,696.3M893.5,698.3L885.7,690.5L886.4,689.8L897.8,691.6L891.2,685.0L891.9,684.3L899.7,692.1L899.0,692.8L887.6,691.0L894.2,697.6L893.5,698.3M904.2,687.9C903.3,688.8,902.1,689.2,900.8,689.2C899.3,689.1,897.9,688.5,896.7,687.3C895.6,686.2,894.9,684.9,894.8,683.4C894.8,682.0,895.2,680.8,896.1,679.9C897.1,678.9,898.2,678.5,899.6,678.5C901.1,678.6,902.4,679.3,903.6,680.4C904.8,681.7,905.4,683.0,905.4,684.5C905.5,685.9,905.0,687.0,904.2,687.9M903.4,687.2C904.1,686.4,904.4,685.5,904.3,684.4C904.2,683.2,903.7,682.2,902.8,681.3C902.3,680.8,901.8,680.4,901.3,680.2C900.8,679.9,900.2,679.8,899.7,679.7C898.5,679.5,897.6,679.8,896.9,680.6C896.1,681.3,895.8,682.3,896.0,683.4C896.1,684.5,896.6,685.6,897.6,686.5C898.5,687.5,899.6,688.0,900.7,688.1C901.8,688.2,902.7,687.9,903.4,687.2M909.3,682.5C909.1,682.7,908.9,682.8,908.7,682.7C908.5,682.7,908.2,682.6,908.0,682.4C907.8,682.2,907.7,682.0,907.7,681.7C907.7,681.5,907.8,681.3,907.9,681.1C908.1,681.0,908.2,680.9,908.5,680.9C908.7,680.9,908.9,681.0,909.2,681.3C909.4,681.5,909.5,681.7,909.5,681.9C909.5,682.2,909.5,682.4,909.3,682.5M911.2,670.9L912.1,671.8C911.4,671.8,910.8,672.0,910.2,672.2C910.1,672.3,909.9,672.4,909.8,672.5C909.7,672.6,909.5,672.7,909.4,672.8C908.9,673.3,908.6,674.0,908.7,674.8C908.8,675.5,909.1,676.2,909.7,676.8C910.3,677.4,911.0,677.7,911.7,677.8C912.5,677.8,913.2,677.5,913.7,677.0C914.1,676.7,914.3,676.3,914.4,675.8C914.6,675.4,914.6,674.9,914.6,674.3L915.6,675.2C915.4,675.8,915.3,676.3,915.1,676.7C914.9,677.0,914.6,677.4,914.4,677.7C913.6,678.4,912.7,678.8,911.7,678.8C910.6,678.7,909.7,678.3,908.9,677.6C908.2,676.8,907.8,675.9,907.7,674.8C907.7,673.8,908.1,672.9,908.8,672.1C909.2,671.7,909.6,671.4,910.1,671.2C910.4,671.1,910.7,671.0,911.2,670.9M919.5,672.6C918.8,673.2,917.9,673.6,916.9,673.6C915.9,673.6,914.9,673.2,914.1,672.4C913.3,671.6,912.9,670.7,912.8,669.7C912.8,668.7,913.1,667.8,913.9,667.1C914.6,666.4,915.4,666.0,916.5,666.1C917.5,666.1,918.4,666.5,919.2,667.3C920.0,668.1,920.4,669.0,920.4,670.1C920.4,671.1,920.1,671.9,919.5,672.6M918.7,672.0C919.2,671.5,919.4,670.9,919.4,670.1C919.4,669.4,919.0,668.7,918.4,668.1C917.8,667.4,917.1,667.1,916.3,667.1C915.5,667.0,915.0,667.3,914.5,667.7C914.0,668.2,913.8,668.8,913.9,669.5C913.9,670.3,914.2,671.0,914.9,671.6C915.5,672.2,916.2,672.6,916.9,672.6C917.7,672.7,918.3,672.5,918.7,672.0M927.1,657.9L930.5,661.3L929.8,662.0L926.2,658.4C925.8,658.0,925.4,657.9,924.9,657.9C924.5,657.9,924.2,658.1,923.9,658.4C923.4,658.8,923.2,659.4,923.3,660.2C923.3,660.9,923.7,661.6,924.3,662.2L926.9,664.8L926.2,665.6L922.6,662.0C922.3,661.6,921.9,661.5,921.4,661.5C920.9,661.5,920.6,661.6,920.3,661.9C919.8,662.4,919.7,663.0,919.7,663.7C919.7,664.5,920.1,665.2,920.7,665.8L923.3,668.4L922.6,669.1L917.3,663.8L918.0,663.2L918.9,664.0C918.7,663.5,918.8,663.0,919.0,662.4C919.1,662.0,919.4,661.6,919.7,661.2C920.2,660.7,920.8,660.5,921.4,660.4C921.9,660.4,922.2,660.4,922.5,660.6C922.4,660.2,922.4,659.8,922.4,659.4C922.5,658.7,922.8,658.1,923.3,657.7C923.8,657.1,924.4,656.8,925.1,656.9C925.8,656.9,926.5,657.2,927.1,657.9" stroke-opacity="0.50"/><g transform="translate(38.999700,39.000000)" id="group1"><path fill="none" stroke-dasharray="11,5" stroke="#575757" id="shape2" d="M53.0,24.0L53.0,699.0" stroke-width="2.333329916000366"/><path fill="#f3f3f3" stroke="#575757" id="shape3" fill-rule="nonzero" d="M.0,.0L106.0,.0L106.0,48.0L.0,48.0L.0,.0z" stroke-width="2.333329916000366"/><text style="fill:#454545;font-family:Microsoft YaHei;font-size:10.00pt" xml:space="preserve"><tspan x="23.2" y="30.0">1</tspan></text></g><g transform="translate(251.666000,39.000000)" id="group4"><path fill="none" stroke-dasharray="11,5" stroke="#575757" id="shape5" d="M53.0,24.0L53.0,699.0" stroke-width="2.333329916000366"/><path fill="#f3f3f3" stroke="#575757" id="shape6" fill-rule="nonzero" d="M.0,.0L106.0,.0L106.0,48.0L.0,48.0L.0,.0z" stroke-width="2.333329916000366"/><text style="fill:#454545;font-family:Microsoft YaHei;font-size:10.00pt" xml:space="preserve"><tspan x="23.2" y="30.0">1</tspan></text></g><g transform="translate(464.333000,39.000000)" id="group7"><path fill="none" stroke-dasharray="11,5" stroke="#575757" id="shape8" d="M53.0,24.0L53.0,699.0" stroke-width="2.333329916000366"/><path fill="#f3f3f3" stroke="#575757" id="shape9" fill-rule="nonzero" d="M.0,.0L106.0,.0L106.0,48.0L.0,48.0L.0,.0z" stroke-width="2.333329916000366"/><text style="fill:#454545;font-family:Microsoft YaHei;font-size:10.00pt" xml:space="preserve"><tspan x="40.0" y="30.0"></tspan></text></g><g transform="translate(677.000000,39.000000)" id="group10"><path fill="none" stroke-dasharray="11,5" stroke="#575757" id="shape11" d="M53.0,24.0L53.0,699.0" stroke-width="2.333329916000366"/><path fill="#f3f3f3" stroke="#575757" id="shape12" fill-rule="nonzero" d="M.0,.0L106.0,.0L106.0,48.0L.0,48.0L.0,.0z" stroke-width="2.333329916000366"/><text style="fill:#454545;font-family:Microsoft YaHei;font-size:10.00pt" xml:space="preserve"><tspan x="44.0" y="30.0">DB</tspan></text></g><path fill="#ffffff" transform="matrix(0.000000,-1.000000,1.000000,0.000000,84.499700,521.645000)" stroke="#000000" id="shape13" fill-rule="evenodd" d="M.0,.0L415.7,.0L415.7,15.0L.0,15.0L.0,.0z" stroke-width="1"/><path fill="#ffffff" transform="matrix(0.000000,-1.000000,1.000000,0.000000,509.833000,181.488400)" stroke="#000000" id="shape14" fill-rule="evenodd" d="M.0,.0L56.7,.0L56.7,15.0L.0,15.0L.0,.0z" stroke-width="1"/><g transform="translate(99.499700,124.795000)" id="shape15"><path fill="none" stroke="#575757" d="M.0,.0L404.1,-0.0" stroke-width="2"/><path fill="#575757" stroke="#575757" d="M410.3,-0.0L403.0,-4.2C403.7,-3.0,404.1,-1.5,404.1,-0.0C404.1,1.5,403.7,3.0,403.0,4.2L410.3,-0.0" stroke-linecap="round" stroke-width="1"/><rect fill="#ffffff" height="18.0" x="64.4" y="-9.0" width="52.0"/><text style="fill:#454545;font-family:Microsoft YaHei;font-size:10.00pt;font-weight:bold" xml:space="preserve"><tspan x="64.4" y="6.0"></tspan></text></g><g transform="translate(509.833000,181.488000)" id="shape16"><path fill="none" stroke-dasharray="6,4" stroke="#575757" d="M.0,.0L-404.1,.0" stroke-width="2"/><path fill="#575757" stroke="#575757" d="M-410.3,.0L-403.0,4.2C-403.7,3.0,-404.1,1.5,-404.1,.0C-404.1,-1.5,-403.7,-3.0,-403.0,-4.2L-410.3,.0" stroke-linecap="round" stroke-width="1"/></g><path fill="#ffffff" transform="matrix(0.000000,-1.000000,1.000000,0.000000,722.500000,370.464400)" stroke="#000000" id="shape17" fill-rule="evenodd" d="M.0,.0L56.7,.0L56.7,15.0L.0,15.0L.0,.0z" stroke-width="1"/><path fill="#ffffff" transform="matrix(0.000000,-1.000000,1.000000,0.000000,297.166000,559.440000)" stroke="#000000" id="shape18" fill-rule="evenodd" d="M.0,.0L341.4,.0L341.4,15.0L.0,15.0L.0,.0z" stroke-width="1"/><g transform="translate(99.499700,408.259000)" id="shape19"><path fill="none" stroke="#575757" d="M.0,.0L616.8,.0" stroke-width="2"/><path fill="#575757" stroke="#575757" d="M623.0,.0L615.7,-4.2C616.4,-3.0,616.8,-1.5,616.8,.0C616.8,1.5,616.4,3.0,615.7,4.2L623.0,.0" stroke-linecap="round" stroke-width="1"/><rect fill="#ffffff" height="18.0" x="49.9" y="-9.0" width="65.0"/><text style="fill:#454545;font-family:Microsoft YaHei;font-size:10.00pt;font-weight:bold" xml:space="preserve"><tspan x="49.9" y="6.0"></tspan></text></g><g transform="translate(722.500000,464.952000)" id="shape20"><path fill="none" stroke-dasharray="6,4" stroke="#575757" d="M.0,.0L-616.8,.0" stroke-width="2"/><path fill="#575757" stroke="#575757" d="M-623.0,.0L-615.7,4.2C-616.4,3.0,-616.8,1.5,-616.8,.0C-616.8,-1.5,-616.4,-3.0,-615.7,-4.2L-623.0,.0" stroke-linecap="round" stroke-width="1"/></g><path fill="#ffffff" transform="matrix(0.000000,-1.000000,1.000000,0.000000,509.833000,275.976400)" stroke="#000000" id="shape21" fill-rule="evenodd" d="M.0,.0L56.7,.0L56.7,15.0L.0,15.0L.0,.0z" stroke-width="1"/><path fill="#ffffff" transform="matrix(0.000000,-1.000000,1.000000,0.000000,722.500000,464.952400)" stroke="#000000" id="shape22" fill-rule="evenodd" d="M.0,.0L56.7,.0L56.7,15.0L.0,15.0L.0,.0z" stroke-width="1"/><g transform="translate(312.166000,218.000000)" id="shape23"><path fill="none" stroke="#575757" d="M.0,.0L191.5,1.2" stroke-width="2"/><path fill="#575757" stroke="#575757" d="M197.7,1.3L190.3,-3.0C191.1,-1.8,191.5,-0.3,191.5,1.2C191.4,2.8,191.0,4.2,190.3,5.5L197.7,1.3" stroke-linecap="round" stroke-width="1"/><rect fill="#ffffff" height="18.0" x="74.8" y="-8.4" width="52.0"/><text style="fill:#454545;font-family:Microsoft YaHei;font-size:10.00pt;font-weight:bold" xml:space="preserve"><tspan x="74.8" y="6.6"></tspan></text></g><g transform="translate(509.833000,275.976000)" id="shape24"><path fill="none" stroke-dasharray="6,4" stroke="#575757" d="M.0,.0L-191.5,-1.2" stroke-width="2"/><path fill="#575757" stroke="#575757" d="M-197.7,-1.3L-190.3,3.0C-191.1,1.8,-191.5,.3,-191.5,-1.2C-191.4,-2.8,-191.0,-4.2,-190.3,-5.5L-197.7,-1.3" stroke-linecap="round" stroke-width="1"/><rect fill="#ffffff" height="18.0" x="-128.8" y="-9.7" width="52.0"/><text style="fill:#454545;font-family:Microsoft YaHei;font-size:10.00pt;font-weight:bold" xml:space="preserve"><tspan x="-128.8" y="5.3"></tspan></text></g><g transform="translate(312.166000,312.488000)" id="shape25"><path fill="none" stroke="#575757" d="M.0,.0L404.1,1.3" stroke-width="2"/><path fill="#575757" stroke="#575757" d="M410.3,1.3L403.0,-3.0C403.7,-1.7,404.1,-0.3,404.1,1.3C404.1,2.8,403.7,4.3,403.0,5.5L410.3,1.3" stroke-linecap="round" stroke-width="1"/><rect fill="#ffffff" height="18.0" x="65.3" y="-8.7" width="65.0"/><text style="fill:#454545;font-family:Microsoft YaHei;font-size:10.00pt;font-weight:bold" xml:space="preserve"><tspan x="65.3" y="6.3"></tspan></text></g><g transform="translate(722.500000,370.464000)" id="shape26"><path fill="none" stroke-dasharray="6,4" stroke="#575757" d="M.0,.0L-404.1,-1.3" stroke-width="2"/><path fill="#575757" stroke="#575757" d="M-410.3,-1.3L-403.0,3.0C-403.7,1.7,-404.1,.3,-404.1,-1.3C-404.1,-2.8,-403.7,-4.3,-403.0,-5.5L-410.3,-1.3" stroke-linecap="round" stroke-width="1"/></g><path fill="#fae9e9" transform="matrix(0.000000,-1.000000,1.000000,0.000000,509.833000,559.440400)" stroke="#e54648" id="shape27" fill-rule="evenodd" d="M.0,.0L56.7,.0L56.7,15.0L.0,15.0L.0,.0z" stroke-width="1"/><g transform="translate(312.166000,501.464000)" id="shape28"><path fill="none" stroke="#575757" d="M.0,.0L191.5,1.2" stroke-width="2"/><path fill="#575757" stroke="#575757" d="M197.7,1.3L190.3,-3.0C191.1,-1.8,191.5,-0.3,191.5,1.2C191.4,2.8,191.0,4.2,190.3,5.5L197.7,1.3" stroke-linecap="round" stroke-width="1"/><rect fill="#ffffff" height="18.0" x="77.8" y="-8.3" width="52.0"/><text style="fill:#454545;font-family:Microsoft YaHei;font-size:10.00pt;font-weight:bold" xml:space="preserve"><tspan x="77.8" y="6.7"></tspan></text></g><g transform="translate(509.833000,559.440000)" id="shape29"><path fill="none" stroke-dasharray="6,4" stroke="#575757" d="M.0,.0L-191.5,-1.2" stroke-width="2"/><path fill="#575757" stroke="#575757" d="M-197.7,-1.3L-190.3,3.0C-191.1,1.8,-191.5,.3,-191.5,-1.2C-191.4,-2.8,-191.0,-4.2,-190.3,-5.5L-197.7,-1.3" stroke-linecap="round" stroke-width="1"/></g><path fill="#ffffff" transform="matrix(0.000000,-1.000000,1.000000,0.000000,84.499700,710.620600)" stroke="#000000" id="shape30" fill-rule="evenodd" d="M.0,.0L132.3,.0L132.3,15.0L.0,15.0L.0,.0z" stroke-width="1"/><g transform="translate(99.499700,502.747000)" id="shape31"><path fill="none" stroke-dasharray="6,4" stroke="#575757" d="M.0,.0L47.5,.0L47.5,94.5L11.3,94.5" stroke-width="2"/><path fill="#575757" stroke="#575757" d="M11.3,100.1L-0.0,94.5L11.3,88.8L11.3,100.1" stroke-linecap="round" stroke-width="1"/><rect fill="#ffffff" height="18.0" x="-29.5" y="37.5" width="156.0"/><text style="fill:#454545;font-family:Microsoft YaHei;font-size:10.00pt;font-weight:bold" xml:space="preserve"><tspan x="-29.5" y="52.5"></tspan></text></g><path fill="#ffffff" transform="matrix(0.000000,-1.000000,1.000000,0.000000,509.833000,691.723400)" stroke="#000000" id="shape32" fill-rule="evenodd" d="M.0,.0L56.7,.0L56.7,15.0L.0,15.0L.0,.0z" stroke-width="1"/><g transform="translate(99.499700,635.030000)" id="shape33"><path fill="none" stroke="#575757" d="M.0,.0L404.1,.0" stroke-width="2"/><path fill="#575757" stroke="#575757" d="M410.3,.0L403.0,-4.2C403.7,-3.0,404.1,-1.5,404.1,.0C404.1,1.5,403.7,3.0,403.0,4.2L410.3,.0" stroke-linecap="round" stroke-width="1"/><rect fill="#ffffff" height="18.0" x="49.4" y="-9.0" width="52.0"/><text style="fill:#454545;font-family:Microsoft YaHei;font-size:10.00pt;font-weight:bold" xml:space="preserve"><tspan x="49.4" y="6.0"></tspan></text></g><g transform="translate(509.833000,691.723000)" id="shape34"><path fill="none" stroke-dasharray="6,4" stroke="#575757" d="M.0,.0L-404.1,-0.0" stroke-width="2"/><path fill="#575757" stroke="#575757" d="M-410.3,-0.0L-403.0,4.2C-403.7,3.0,-404.1,1.5,-404.1,-0.0C-404.1,-1.5,-403.7,-3.0,-403.0,-4.2L-410.3,-0.0" stroke-linecap="round" stroke-width="1"/></g><g transform="translate(581.000000,531.500000)" id="shape35"><path fill="#f3f3f3" stroke="#575757" fill-rule="nonzero" d="M.0,.0L115.3,.0L132.0,16.6L132.0,111.0L.0,111.0L.0,.0zM115.3,.0L115.3,16.6L132.0,16.6" stroke-width="2.333329916000366"/><text style="fill:#454545;font-family:Microsoft YaHei;font-size:10.00pt" xml:space="preserve"><tspan x="7.5" y="25.5"></tspan><tspan x="7.5" y="43.5"></tspan><tspan x="7.5" y="61.5"></tspan><tspan x="7.5" y="79.5"></tspan><tspan x="27.0" y="97.5"></tspan></text></g><g transform="translate(581.000000,587.000000)" id="shape36"><path fill="none" stroke-dasharray="2,5" stroke="#575757" d="M.0,.0C-7.9,-1.1,-15.8,-2.1,-21.2,-12.5C-26.6,-22.9,-29.6,-42.5,-35.0,-52.9C-39.4,-61.2,-45.3,-63.5,-51.6,-64.7" stroke-width="2"/><path fill="#575757" stroke="#575757" d="M-56.2,-65.4L-49.5,-60.1C-50.1,-61.4,-50.3,-62.9,-50.0,-64.4C-49.8,-66.0,-49.2,-67.3,-48.3,-68.4L-56.2,-65.4" stroke-linecap="round" stroke-width="1"/></g><g transform="translate(135.000000,247.000000)" id="shape37"><path fill="#f3f3f3" stroke="#575757" fill-rule="nonzero" d="M.0,.0L140.7,.0L153.0,12.3L153.0,82.0L.0,82.0L.0,.0zM140.7,.0L140.7,12.3L153.0,12.3" stroke-width="2.333329916000366"/><text style="fill:#454545;font-family:Microsoft YaHei;font-size:10.00pt" xml:space="preserve"><tspan x="4.0" y="29.0"></tspan><tspan x="43.0" style="font-weight:bold"></tspan><tspan x="95.0"></tspan><tspan x="4.0" y="47.0"></tspan><tspan x="4.0" y="65.0"></tspan></text></g><g transform="translate(211.500000,329.000000)" id="shape38"><path fill="none" stroke-dasharray="2,5" stroke="#575757" d="M.0,.0C.9,37.6,1.7,75.2,10.0,107.4C18.3,139.6,34.0,166.4,42.3,198.6C50.2,229.3,51.4,264.9,52.2,300.8" stroke-width="2"/><path fill="#575757" stroke="#575757" d="M52.4,306.0L56.4,298.6C55.2,299.3,53.8,299.8,52.2,299.8C50.7,299.9,49.2,299.5,47.9,298.8L52.4,306.0" stroke-linecap="round" stroke-width="1"/></g></g></svg>